<?xml version="1.0" encoding="UTF-8"?>
<svg xmlns="http://www.w3.org/2000/svg" xmlns:xlink="http://www.w3.org/1999/xlink" width="733.294434" height="500.333984" viewBox="0 0 733.294434 500.333984">
<defs>
<g>
<g id="glyph-0-0">
<path d="M 6.3125 -14.3125 C 6.339844 -14.277344 6.355469 -14.25 6.359375 -14.234375 C 6.363281 -14.21875 6.363281 -14.175781 6.363281 -14.113281 L 6.363281 -1.574219 C 6.363281 -1.039062 6.507812 -0.699219 6.792969 -0.550781 C 7.078125 -0.40625 7.609375 -0.320312 8.386719 -0.292969 L 8.386719 0 L 2.511719 0 L 2.511719 -0.3125 C 3.351562 -0.355469 3.898438 -0.46875 4.15625 -0.65625 C 4.414062 -0.84375 4.542969 -1.25 4.542969 -1.875 L 4.542969 -11.519531 C 4.542969 -11.855469 4.5 -12.109375 4.417969 -12.28125 C 4.332031 -12.453125 4.152344 -12.542969 3.875 -12.542969 C 3.695312 -12.542969 3.460938 -12.492188 3.171875 -12.390625 C 2.882812 -12.289062 2.613281 -12.183594 2.363281 -12.074219 L 2.363281 -12.363281 L 6.1875 -14.3125 Z M 6.3125 -14.3125 "/>
</g>
<g id="glyph-0-1">
<path d="M 0.636719 -0.238281 C 3.175781 -2.878906 4.902344 -4.816406 5.8125 -6.050781 C 6.722656 -7.289062 7.175781 -8.492188 7.175781 -9.667969 C 7.175781 -10.695312 6.898438 -11.476562 6.34375 -12.015625 C 5.789062 -12.554688 5.125 -12.824219 4.355469 -12.824219 C 3.402344 -12.824219 2.632812 -12.476562 2.042969 -11.78125 C 1.714844 -11.398438 1.402344 -10.8125 1.105469 -10.019531 L 0.65625 -10.113281 C 1.003906 -11.710938 1.59375 -12.820312 2.421875 -13.441406 C 3.25 -14.0625 4.140625 -14.375 5.09375 -14.375 C 6.265625 -14.375 7.21875 -14.003906 7.941406 -13.265625 C 8.667969 -12.527344 9.03125 -11.621094 9.03125 -10.550781 C 9.03125 -9.414062 8.640625 -8.316406 7.855469 -7.261719 C 7.070312 -6.207031 5.363281 -4.328125 2.738281 -1.625 L 7.519531 -1.625 C 8.1875 -1.625 8.65625 -1.703125 8.925781 -1.863281 C 9.199219 -2.023438 9.503906 -2.414062 9.84375 -3.03125 L 10.113281 -2.90625 L 8.957031 0 L 0.636719 0 Z M 0.636719 -0.238281 "/>
</g>
<g id="glyph-0-2">
<path d="M 1.65625 -1.8125 C 2.039062 -1.8125 2.542969 -1.613281 3.171875 -1.21875 C 3.800781 -0.824219 4.332031 -0.625 4.769531 -0.625 C 5.742188 -0.625 6.464844 -0.953125 6.9375 -1.609375 C 7.410156 -2.265625 7.644531 -2.980469 7.644531 -3.75 C 7.644531 -4.492188 7.453125 -5.144531 7.074219 -5.707031 C 6.425781 -6.660156 5.335938 -7.136719 3.800781 -7.136719 C 3.710938 -7.136719 3.625 -7.132812 3.542969 -7.128906 C 3.457031 -7.125 3.359375 -7.117188 3.25 -7.105469 L 3.230469 -7.375 C 4.339844 -7.777344 5.214844 -8.238281 5.855469 -8.761719 C 6.492188 -9.28125 6.8125 -9.96875 6.8125 -10.824219 C 6.8125 -11.582031 6.5625 -12.15625 6.058594 -12.550781 C 5.554688 -12.949219 4.980469 -13.144531 4.332031 -13.144531 C 3.570312 -13.144531 2.894531 -12.863281 2.3125 -12.300781 C 1.992188 -11.996094 1.648438 -11.523438 1.28125 -10.886719 L 0.957031 -10.957031 C 1.234375 -12.011719 1.753906 -12.859375 2.511719 -13.488281 C 3.269531 -14.121094 4.140625 -14.4375 5.136719 -14.4375 C 6.199219 -14.4375 7.019531 -14.144531 7.597656 -13.5625 C 8.179688 -12.980469 8.46875 -12.304688 8.46875 -11.542969 C 8.46875 -10.867188 8.230469 -10.25 7.75 -9.6875 C 7.480469 -9.367188 7.058594 -9.011719 6.488281 -8.613281 C 7.15625 -8.328125 7.691406 -7.996094 8.09375 -7.613281 C 8.851562 -6.886719 9.230469 -5.960938 9.230469 -4.84375 C 9.230469 -3.523438 8.710938 -2.359375 7.671875 -1.355469 C 6.632812 -0.347656 5.15625 0.15625 3.238281 0.15625 C 2.386719 0.15625 1.785156 0.03125 1.441406 -0.222656 C 1.097656 -0.476562 0.925781 -0.75 0.925781 -1.042969 C 0.925781 -1.222656 0.984375 -1.394531 1.097656 -1.5625 C 1.214844 -1.730469 1.398438 -1.8125 1.65625 -1.8125 Z M 1.65625 -1.8125 "/>
</g>
<g id="glyph-0-3">
<path d="M 6.21875 -12.167969 L 1.105469 -4.9375 L 6.21875 -4.9375 Z M 6.90625 -14.3125 L 7.894531 -14.3125 L 7.894531 -4.9375 L 10.074219 -4.9375 L 10.074219 -3.550781 L 7.894531 -3.550781 L 7.894531 0 L 6.238281 0 L 6.238281 -3.550781 L 0.238281 -3.550781 L 0.238281 -4.9375 Z M 6.90625 -14.3125 "/>
</g>
<g id="glyph-0-4">
<path d="M 1.59375 -1.90625 C 1.988281 -1.90625 2.507812 -1.683594 3.152344 -1.234375 C 3.792969 -0.785156 4.289062 -0.5625 4.636719 -0.5625 C 5.433594 -0.5625 6.132812 -0.914062 6.730469 -1.621094 C 7.328125 -2.324219 7.625 -3.191406 7.625 -4.21875 C 7.625 -6.015625 6.667969 -7.3125 4.75 -8.105469 C 3.6875 -8.542969 2.699219 -8.761719 1.78125 -8.761719 C 1.628906 -8.761719 1.53125 -8.765625 1.496094 -8.777344 C 1.457031 -8.785156 1.410156 -8.824219 1.355469 -8.886719 C 1.367188 -8.941406 1.378906 -8.988281 1.390625 -9.027344 C 1.402344 -9.066406 1.414062 -9.101562 1.425781 -9.136719 L 3.699219 -14.113281 L 8.167969 -14.113281 C 8.390625 -14.113281 8.5625 -14.152344 8.683594 -14.230469 C 8.804688 -14.304688 8.960938 -14.449219 9.15625 -14.65625 L 9.324219 -14.511719 L 8.511719 -12.582031 C 8.484375 -12.519531 8.40625 -12.480469 8.28125 -12.464844 C 8.15625 -12.445312 8.019531 -12.4375 7.875 -12.4375 L 3.84375 -12.4375 L 2.957031 -10.613281 C 4.097656 -10.417969 4.929688 -10.234375 5.457031 -10.0625 C 6.324219 -9.769531 7.050781 -9.339844 7.636719 -8.769531 C 8.136719 -8.277344 8.515625 -7.722656 8.769531 -7.109375 C 9.027344 -6.496094 9.15625 -5.84375 9.15625 -5.15625 C 9.15625 -3.621094 8.609375 -2.339844 7.515625 -1.3125 C 6.421875 -0.285156 5.039062 0.230469 3.363281 0.230469 C 2.683594 0.230469 2.136719 0.164062 1.71875 0.03125 C 1.023438 -0.183594 0.675781 -0.570312 0.675781 -1.125 C 0.675781 -1.332031 0.75 -1.515625 0.902344 -1.671875 C 1.050781 -1.828125 1.28125 -1.90625 1.59375 -1.90625 Z M 1.59375 -1.90625 "/>
</g>
<g id="glyph-0-5">
<path d="M 9.980469 -4.738281 C 9.980469 -3.46875 9.570312 -2.324219 8.753906 -1.300781 C 7.9375 -0.28125 6.878906 0.230469 5.574219 0.230469 C 4.351562 0.230469 3.238281 -0.34375 2.234375 -1.488281 C 1.230469 -2.636719 0.730469 -4.160156 0.730469 -6.0625 C 0.730469 -8.515625 1.703125 -10.617188 3.644531 -12.375 C 5.382812 -13.847656 7.332031 -14.582031 9.5 -14.582031 L 9.550781 -14.238281 C 8.683594 -14.078125 7.9375 -13.863281 7.308594 -13.589844 C 6.679688 -13.316406 6.117188 -12.929688 5.625 -12.4375 C 5.117188 -11.9375 4.640625 -11.300781 4.199219 -10.53125 C 3.753906 -9.761719 3.449219 -8.996094 3.28125 -8.238281 C 3.710938 -8.503906 4.082031 -8.699219 4.394531 -8.824219 C 4.949219 -9.046875 5.511719 -9.15625 6.074219 -9.15625 C 7.175781 -9.15625 8.105469 -8.773438 8.855469 -8.011719 C 9.605469 -7.246094 9.980469 -6.15625 9.980469 -4.738281 Z M 8.074219 -3.9375 C 8.074219 -4.859375 7.925781 -5.679688 7.636719 -6.394531 C 7.148438 -7.589844 6.324219 -8.1875 5.15625 -8.1875 C 4.078125 -8.1875 3.363281 -7.867188 3.011719 -7.230469 C 2.800781 -6.855469 2.699219 -6.230469 2.699219 -5.355469 C 2.699219 -4.222656 2.9375 -3.113281 3.421875 -2.03125 C 3.90625 -0.949219 4.667969 -0.40625 5.707031 -0.40625 C 6.535156 -0.40625 7.136719 -0.757812 7.511719 -1.464844 C 7.886719 -2.167969 8.074219 -2.992188 8.074219 -3.9375 Z M 8.074219 -3.9375 "/>
</g>
<g id="glyph-0-6">
<path d="M 9.574219 -14.113281 L 9.574219 -13.769531 L 5.050781 0.199219 L 3.675781 0.199219 L 7.894531 -12.542969 L 3.355469 -12.542969 C 2.679688 -12.542969 2.195312 -12.429688 1.902344 -12.207031 C 1.605469 -11.984375 1.234375 -11.519531 0.78125 -10.8125 L 0.417969 -10.980469 C 0.867188 -12.089844 1.148438 -12.777344 1.253906 -13.035156 C 1.363281 -13.296875 1.503906 -13.65625 1.675781 -14.113281 Z M 9.574219 -14.113281 "/>
</g>
<g id="glyph-0-7">
<path d="M 5.363281 -0.355469 C 6.164062 -0.355469 6.765625 -0.578125 7.175781 -1.019531 C 7.585938 -1.464844 7.792969 -2.019531 7.792969 -2.6875 C 7.792969 -3.445312 7.574219 -4.058594 7.140625 -4.527344 C 6.707031 -4.996094 5.816406 -5.703125 4.46875 -6.65625 C 3.871094 -6.28125 3.4375 -5.796875 3.167969 -5.199219 C 2.894531 -4.601562 2.761719 -4.023438 2.761719 -3.46875 C 2.761719 -2.515625 3.003906 -1.761719 3.496094 -1.199219 C 3.984375 -0.636719 4.609375 -0.355469 5.363281 -0.355469 Z M 5.5 -8.3125 C 6.152344 -8.769531 6.605469 -9.15625 6.855469 -9.46875 C 7.285156 -10.003906 7.5 -10.648438 7.5 -11.40625 C 7.5 -12.066406 7.296875 -12.625 6.890625 -13.089844 C 6.484375 -13.550781 5.867188 -13.78125 5.042969 -13.78125 C 4.402344 -13.78125 3.875 -13.578125 3.457031 -13.175781 C 3.042969 -12.773438 2.832031 -12.285156 2.832031 -11.707031 C 2.832031 -11.054688 3.078125 -10.449219 3.566406 -9.890625 C 4.058594 -9.332031 4.703125 -8.804688 5.5 -8.3125 Z M 3.894531 -7.105469 C 2.980469 -7.839844 2.355469 -8.425781 2.019531 -8.863281 C 1.507812 -9.53125 1.25 -10.265625 1.25 -11.074219 C 1.25 -11.988281 1.628906 -12.765625 2.390625 -13.40625 C 3.152344 -14.046875 4.140625 -14.363281 5.355469 -14.363281 C 6.472656 -14.363281 7.359375 -14.0625 8.019531 -13.457031 C 8.679688 -12.855469 9.011719 -12.152344 9.011719 -11.355469 C 9.011719 -10.542969 8.671875 -9.8125 8 -9.167969 C 7.609375 -8.800781 6.984375 -8.375 6.113281 -7.894531 C 7.292969 -7.019531 8.140625 -6.257812 8.652344 -5.609375 C 9.160156 -4.960938 9.417969 -4.195312 9.417969 -3.3125 C 9.417969 -2.3125 9.039062 -1.472656 8.285156 -0.792969 C 7.53125 -0.113281 6.523438 0.230469 5.261719 0.230469 C 4.128906 0.230469 3.15625 -0.0859375 2.347656 -0.714844 C 1.539062 -1.34375 1.136719 -2.171875 1.136719 -3.199219 C 1.136719 -4.082031 1.417969 -4.859375 1.980469 -5.53125 C 2.347656 -5.96875 2.984375 -6.492188 3.894531 -7.105469 Z M 3.894531 -7.105469 "/>
</g>
<g id="glyph-0-8">
<path d="M 5.324219 -5.96875 C 5.796875 -5.96875 6.28125 -6.101562 6.785156 -6.363281 C 7.289062 -6.628906 7.578125 -6.851562 7.644531 -7.03125 C 7.671875 -7.101562 7.699219 -7.359375 7.71875 -7.808594 C 7.738281 -8.253906 7.75 -8.617188 7.75 -8.894531 C 7.75 -10.339844 7.507812 -11.515625 7.019531 -12.417969 C 6.535156 -13.320312 5.824219 -13.769531 4.886719 -13.769531 C 4.207031 -13.769531 3.65625 -13.460938 3.234375 -12.84375 C 2.8125 -12.226562 2.605469 -11.300781 2.605469 -10.074219 C 2.605469 -9.058594 2.800781 -8.121094 3.191406 -7.261719 C 3.585938 -6.398438 4.296875 -5.96875 5.324219 -5.96875 Z M 5.03125 -14.363281 C 6.558594 -14.363281 7.738281 -13.753906 8.574219 -12.535156 C 9.40625 -11.316406 9.824219 -9.957031 9.824219 -8.457031 C 9.824219 -7.402344 9.625 -6.328125 9.230469 -5.238281 C 8.832031 -4.148438 8.257812 -3.175781 7.5 -2.324219 C 6.617188 -1.335938 5.5 -0.605469 4.144531 -0.125 C 3.386719 0.144531 2.433594 0.355469 1.28125 0.5 L 1.175781 0.0820312 C 1.898438 -0.0820312 2.5 -0.261719 2.980469 -0.449219 C 3.839844 -0.789062 4.53125 -1.203125 5.050781 -1.699219 C 5.789062 -2.398438 6.375 -3.183594 6.816406 -4.046875 C 7.257812 -4.910156 7.535156 -5.636719 7.644531 -6.21875 L 7.28125 -5.949219 C 6.765625 -5.558594 6.164062 -5.292969 5.46875 -5.144531 C 5.109375 -5.0625 4.777344 -5.019531 4.480469 -5.019531 C 3.300781 -5.019531 2.363281 -5.4375 1.671875 -6.277344 C 0.980469 -7.113281 0.636719 -8.109375 0.636719 -9.269531 C 0.636719 -10.75 1.046875 -11.96875 1.871094 -12.925781 C 2.691406 -13.886719 3.746094 -14.363281 5.03125 -14.363281 Z M 5.03125 -14.363281 "/>
</g>
<g id="glyph-0-9">
<path d="M 5.105469 -0.386719 C 6.125 -0.386719 6.828125 -0.945312 7.207031 -2.0625 C 7.589844 -3.179688 7.78125 -4.796875 7.78125 -6.917969 C 7.78125 -8.605469 7.667969 -9.953125 7.4375 -10.957031 C 7.007812 -12.832031 6.203125 -13.769531 5.019531 -13.769531 C 3.839844 -13.769531 3.03125 -12.804688 2.59375 -10.875 C 2.363281 -9.847656 2.25 -8.492188 2.25 -6.8125 C 2.25 -5.234375 2.367188 -3.976562 2.605469 -3.03125 C 3.050781 -1.265625 3.882812 -0.386719 5.105469 -0.386719 Z M 5.074219 -14.332031 C 6.671875 -14.332031 7.910156 -13.496094 8.792969 -11.824219 C 9.492188 -10.46875 9.84375 -8.914062 9.84375 -7.15625 C 9.84375 -5.773438 9.628906 -4.472656 9.199219 -3.25 C 8.386719 -0.953125 6.980469 0.199219 4.980469 0.199219 C 3.613281 0.199219 2.484375 -0.421875 1.605469 -1.667969 C 0.660156 -2.992188 0.1875 -4.796875 0.1875 -7.074219 C 0.1875 -8.863281 0.503906 -10.40625 1.136719 -11.699219 C 1.988281 -13.457031 3.300781 -14.332031 5.074219 -14.332031 Z M 5.074219 -14.332031 "/>
</g>
<g id="glyph-1-0">
<path d="M 13.183594 -11.390625 L 16.492188 -11.390625 L 17.28125 -12.457031 L 18.75 -11.070312 C 18.894531 -10.957031 18.964844 -10.871094 18.964844 -10.816406 C 18.964844 -10.757812 18.894531 -10.6875 18.75 -10.601562 L 18.046875 -10.21875 C 17.933594 -7.175781 17.8125 -5.027344 17.683594 -3.777344 C 17.554688 -2.523438 17.382812 -1.695312 17.164062 -1.289062 C 16.941406 -0.886719 16.570312 -0.488281 16.042969 -0.0976562 C 15.515625 0.292969 15.1875 0.492188 15.0625 0.492188 C 14.917969 0.492188 14.832031 0.382812 14.804688 0.171875 C 14.71875 -0.597656 13.839844 -1.160156 12.160156 -1.515625 L 12.246094 -1.878906 C 13.382812 -1.734375 14.195312 -1.664062 14.675781 -1.664062 C 15.160156 -1.664062 15.488281 -1.800781 15.660156 -2.070312 C 15.828125 -2.339844 16.011719 -3.121094 16.203125 -4.414062 C 16.394531 -5.710938 16.511719 -7.835938 16.554688 -10.792969 L 13.097656 -10.792969 C 12.828125 -8.191406 12.453125 -6.363281 11.976562 -5.3125 C 11.5 -4.257812 10.929688 -3.363281 10.261719 -2.625 C 9.59375 -1.882812 8.492188 -1.003906 6.953125 0.0195312 L 6.71875 -0.234375 C 8.625 -1.941406 9.871094 -3.597656 10.453125 -5.207031 C 11.035156 -6.8125 11.433594 -8.675781 11.648438 -10.792969 L 9.152344 -10.792969 C 8.554688 -10.792969 8.070312 -10.714844 7.703125 -10.558594 L 6.933594 -11.5 C 7.472656 -11.429688 8.0625 -11.390625 8.703125 -11.390625 L 11.710938 -11.390625 C 11.78125 -12.359375 11.820312 -13.265625 11.820312 -14.113281 C 11.820312 -14.957031 11.804688 -15.738281 11.777344 -16.449219 L 13.800781 -15.617188 C 14 -15.515625 14.101562 -15.417969 14.101562 -15.316406 C 14.101562 -15.21875 14.003906 -15.113281 13.8125 -15.007812 C 13.621094 -14.902344 13.496094 -14.75 13.441406 -14.558594 C 13.382812 -14.367188 13.339844 -13.953125 13.3125 -13.3125 C 13.285156 -12.671875 13.242188 -12.03125 13.183594 -11.390625 Z M 2.988281 -15.402344 C 4.054688 -14.976562 4.863281 -14.523438 5.417969 -14.046875 C 5.972656 -13.570312 6.25 -13.15625 6.25 -12.800781 C 6.25 -12.273438 6.121094 -11.839844 5.867188 -11.5 C 5.609375 -11.15625 5.328125 -10.988281 5.023438 -10.988281 C 4.71875 -10.988281 4.539062 -11.265625 4.492188 -11.820312 C 4.441406 -12.375 4.265625 -12.957031 3.96875 -13.566406 C 3.667969 -14.179688 3.277344 -14.691406 2.792969 -15.105469 Z M 5.78125 -0.40625 C 6.25 0.078125 6.792969 0.449219 7.414062 0.703125 C 8.03125 0.960938 8.75 1.132812 9.566406 1.226562 C 10.386719 1.320312 11.824219 1.367188 13.886719 1.367188 C 15.949219 1.367188 18.148438 1.203125 20.480469 0.875 L 20.480469 1.238281 C 19.484375 1.550781 18.949219 2.0625 18.878906 2.773438 C 18.863281 2.929688 18.695312 3.007812 18.367188 3.007812 C 17.242188 3.007812 15.726562 2.953125 13.8125 2.847656 C 11.898438 2.742188 10.535156 2.628906 9.71875 2.507812 C 8.898438 2.386719 8.167969 2.179688 7.519531 1.886719 C 6.871094 1.597656 6.335938 1.246094 5.910156 0.84375 C 5.484375 0.4375 5.152344 0.234375 4.917969 0.234375 C 4.683594 0.234375 4.484375 0.289062 4.320312 0.394531 C 4.15625 0.5 3.839844 0.8125 3.371094 1.324219 C 2.902344 1.835938 2.570312 2.238281 2.378906 2.527344 C 2.1875 2.820312 2.054688 2.964844 1.984375 2.964844 C 1.914062 2.964844 1.847656 2.910156 1.792969 2.792969 L 0.894531 1.324219 C 2.929688 0.214844 4.082031 -0.375 4.351562 -0.449219 L 4.351562 -7.230469 L 3.027344 -7.230469 C 2.289062 -7.230469 1.804688 -7.152344 1.578125 -6.996094 L 0.832031 -7.9375 C 1.371094 -7.867188 1.960938 -7.828125 2.601562 -7.828125 L 4.117188 -7.828125 L 4.96875 -9.003906 L 6.378906 -7.742188 C 6.519531 -7.628906 6.59375 -7.535156 6.59375 -7.457031 C 6.59375 -7.378906 6.507812 -7.28125 6.335938 -7.167969 L 5.78125 -6.847656 Z M 5.78125 -0.40625 "/>
</g>
</g>
</defs>
<path fill-rule="nonzero" fill="rgb(100%, 100%, 100%)" fill-opacity="1" d="M 0 0 L 733.292969 0 L 733.292969 500.335938 L 0 500.335938 Z M 0 0 "/>
<path fill="none" stroke-width="1" stroke-linecap="butt" stroke-linejoin="miter" stroke="rgb(0%, 0%, 0%)" stroke-opacity="1" stroke-miterlimit="10" d="M 75 189.804688 C 75 198.089844 68.285156 204.804688 60 204.804688 C 51.714844 204.804688 45 198.089844 45 189.804688 C 45 181.519531 51.714844 174.804688 60 174.804688 C 68.285156 174.804688 75 181.519531 75 189.804688 "/>
<g fill="rgb(0%, 0%, 0%)" fill-opacity="1">
<use xlink:href="#glyph-0-0" x="54.625" y="196.960938"/>
</g>
<path fill="none" stroke-width="1" stroke-linecap="butt" stroke-linejoin="miter" stroke="rgb(0%, 0%, 0%)" stroke-opacity="1" stroke-miterlimit="10" d="M 75 409.03125 C 75 417.316406 68.285156 424.03125 60 424.03125 C 51.714844 424.03125 45 417.316406 45 409.03125 C 45 400.746094 51.714844 394.03125 60 394.03125 C 68.285156 394.03125 75 400.746094 75 409.03125 "/>
<g fill="rgb(0%, 0%, 0%)" fill-opacity="1">
<use xlink:href="#glyph-0-1" x="54.625" y="416.21875"/>
</g>
<path fill="none" stroke-width="1" stroke-linecap="butt" stroke-linejoin="miter" stroke="rgb(0%, 0%, 0%)" stroke-opacity="1" stroke-miterlimit="10" d="M 140.480469 378.457031 C 140.480469 386.742188 133.765625 393.457031 125.480469 393.457031 C 117.195312 393.457031 110.480469 386.742188 110.480469 378.457031 C 110.480469 370.175781 117.195312 363.457031 125.480469 363.457031 C 133.765625 363.457031 140.480469 370.175781 140.480469 378.457031 "/>
<g fill="rgb(0%, 0%, 0%)" fill-opacity="1">
<use xlink:href="#glyph-0-2" x="120.402344" y="385.597656"/>
</g>
<path fill="none" stroke-width="1" stroke-linecap="butt" stroke-linejoin="miter" stroke="rgb(0%, 0%, 0%)" stroke-opacity="1" stroke-miterlimit="10" d="M 205.960938 253.113281 C 205.960938 261.398438 199.242188 268.113281 190.960938 268.113281 C 182.675781 268.113281 175.960938 261.398438 175.960938 253.113281 C 175.957031 244.832031 182.675781 238.113281 190.957031 238.113281 C 199.242188 238.113281 205.957031 244.832031 205.957031 253.113281 "/>
<g fill="rgb(0%, 0%, 0%)" fill-opacity="1">
<use xlink:href="#glyph-0-3" x="185.804688" y="260.269531"/>
</g>
<path fill="none" stroke-width="1" stroke-linecap="butt" stroke-linejoin="miter" stroke="rgb(0%, 0%, 0%)" stroke-opacity="1" stroke-miterlimit="10" d="M 205.960938 378.457031 C 205.960938 386.742188 199.242188 393.457031 190.960938 393.457031 C 182.675781 393.457031 175.960938 386.742188 175.960938 378.457031 C 175.957031 370.175781 182.675781 363.457031 190.957031 363.457031 C 199.242188 363.457031 205.957031 370.175781 205.957031 378.457031 "/>
<g fill="rgb(0%, 0%, 0%)" fill-opacity="1">
<use xlink:href="#glyph-0-4" x="185.960938" y="385.671875"/>
</g>
<path fill="none" stroke-width="1" stroke-linecap="butt" stroke-linejoin="miter" stroke="rgb(0%, 0%, 0%)" stroke-opacity="1" stroke-miterlimit="10" d="M 271.4375 253.113281 C 271.4375 261.398438 264.722656 268.113281 256.4375 268.113281 C 248.152344 268.113281 241.4375 261.398438 241.4375 253.113281 C 241.4375 244.832031 248.152344 238.113281 256.4375 238.113281 C 264.722656 238.113281 271.4375 244.832031 271.4375 253.113281 "/>
<g fill="rgb(0%, 0%, 0%)" fill-opacity="1">
<use xlink:href="#glyph-0-5" x="251.085938" y="260.292969"/>
</g>
<path fill="none" stroke-width="1" stroke-linecap="butt" stroke-linejoin="miter" stroke="rgb(0%, 0%, 0%)" stroke-opacity="1" stroke-miterlimit="10" d="M 271.4375 378.457031 C 271.4375 386.742188 264.722656 393.457031 256.4375 393.457031 C 248.152344 393.457031 241.4375 386.742188 241.4375 378.457031 C 241.4375 370.175781 248.152344 363.457031 256.4375 363.457031 C 264.722656 363.457031 271.4375 370.175781 271.4375 378.457031 "/>
<g fill="rgb(0%, 0%, 0%)" fill-opacity="1">
<use xlink:href="#glyph-0-6" x="251.445312" y="385.417969"/>
</g>
<path fill="none" stroke-width="1" stroke-linecap="butt" stroke-linejoin="miter" stroke="rgb(0%, 0%, 0%)" stroke-opacity="1" stroke-miterlimit="10" d="M 336.917969 189.828125 C 336.917969 198.113281 330.203125 204.828125 321.917969 204.828125 C 313.632812 204.828125 306.917969 198.113281 306.917969 189.828125 C 306.917969 181.542969 313.632812 174.828125 321.917969 174.828125 C 330.203125 174.828125 336.917969 181.542969 336.917969 189.828125 "/>
<g fill="rgb(0%, 0%, 0%)" fill-opacity="1">
<use xlink:href="#glyph-0-7" x="316.640625" y="196.894531"/>
</g>
<path fill="none" stroke-width="1" stroke-linecap="butt" stroke-linejoin="miter" stroke="rgb(0%, 0%, 0%)" stroke-opacity="1" stroke-miterlimit="10" d="M 336.917969 378.457031 C 336.917969 386.742188 330.203125 393.457031 321.917969 393.457031 C 313.632812 393.457031 306.917969 386.742188 306.917969 378.457031 C 306.917969 370.175781 313.632812 363.457031 321.917969 363.457031 C 330.203125 363.457031 336.917969 370.175781 336.917969 378.457031 "/>
<g fill="rgb(0%, 0%, 0%)" fill-opacity="1">
<use xlink:href="#glyph-0-8" x="316.6875" y="385.390625"/>
</g>
<path fill="none" stroke-width="1" stroke-linecap="butt" stroke-linejoin="miter" stroke="rgb(0%, 0%, 0%)" stroke-opacity="1" stroke-miterlimit="10" d="M 406.011719 126.496094 C 406.011719 135.738281 398.519531 143.234375 389.273438 143.234375 C 380.027344 143.234375 372.535156 135.738281 372.53125 126.496094 C 372.53125 117.25 380.027344 109.753906 389.273438 109.753906 C 398.519531 109.753906 406.011719 117.25 406.011719 126.496094 "/>
<g fill="rgb(0%, 0%, 0%)" fill-opacity="1">
<use xlink:href="#glyph-0-0" x="377.667969" y="133.5625"/>
<use xlink:href="#glyph-0-9" x="388.667969" y="133.5625"/>
</g>
<path fill="none" stroke-width="1" stroke-linecap="butt" stroke-linejoin="miter" stroke="rgb(0%, 0%, 0%)" stroke-opacity="1" stroke-miterlimit="10" d="M 404.78125 189.828125 C 404.78125 198.394531 397.839844 205.339844 389.273438 205.339844 C 380.707031 205.339844 373.761719 198.394531 373.761719 189.828125 C 373.761719 181.261719 380.707031 174.316406 389.273438 174.316406 C 397.839844 174.316406 404.78125 181.261719 404.78125 189.828125 "/>
<g fill="rgb(0%, 0%, 0%)" fill-opacity="1">
<use xlink:href="#glyph-0-0" x="378.898438" y="196.984375"/>
<use xlink:href="#glyph-0-0" x="388.898438" y="196.984375"/>
</g>
<path fill="none" stroke-width="1" stroke-linecap="butt" stroke-linejoin="miter" stroke="rgb(0%, 0%, 0%)" stroke-opacity="1" stroke-miterlimit="10" d="M 406.148438 378.457031 C 406.148438 387.777344 398.59375 395.332031 389.273438 395.335938 C 379.953125 395.335938 372.398438 387.777344 372.398438 378.457031 C 372.398438 369.136719 379.953125 361.582031 389.273438 361.582031 C 398.59375 361.582031 406.148438 369.136719 406.148438 378.457031 "/>
<g fill="rgb(0%, 0%, 0%)" fill-opacity="1">
<use xlink:href="#glyph-0-0" x="377.53125" y="385.644531"/>
<use xlink:href="#glyph-0-1" x="388.53125" y="385.644531"/>
</g>
<path fill="none" stroke-width="1" stroke-linecap="butt" stroke-linejoin="miter" stroke="rgb(0%, 0%, 0%)" stroke-opacity="1" stroke-miterlimit="10" d="M 474.777344 63.210938 C 474.777344 72.285156 467.421875 79.640625 458.347656 79.640625 C 449.269531 79.640625 441.914062 72.285156 441.914062 63.210938 C 441.914062 54.132812 449.269531 46.777344 458.347656 46.777344 C 467.421875 46.777344 474.777344 54.132812 474.777344 63.207031 "/>
<g fill="rgb(0%, 0%, 0%)" fill-opacity="1">
<use xlink:href="#glyph-0-0" x="447.050781" y="70.351562"/>
<use xlink:href="#glyph-0-2" x="458.050781" y="70.351562"/>
</g>
<path fill="none" stroke-width="1" stroke-linecap="butt" stroke-linejoin="miter" stroke="rgb(0%, 0%, 0%)" stroke-opacity="1" stroke-miterlimit="10" d="M 475.199219 126.496094 C 475.199219 135.804688 467.65625 143.347656 458.347656 143.347656 C 449.039062 143.347656 441.492188 135.804688 441.492188 126.496094 C 441.492188 117.1875 449.039062 109.640625 458.347656 109.640625 C 467.65625 109.640625 475.199219 117.1875 475.199219 126.496094 "/>
<g fill="rgb(0%, 0%, 0%)" fill-opacity="1">
<use xlink:href="#glyph-0-0" x="446.628906" y="133.652344"/>
<use xlink:href="#glyph-0-3" x="457.628906" y="133.652344"/>
</g>
<path fill="none" stroke-width="1" stroke-linecap="butt" stroke-linejoin="miter" stroke="rgb(0%, 0%, 0%)" stroke-opacity="1" stroke-miterlimit="10" d="M 474.824219 189.828125 C 474.824219 198.929688 467.449219 206.308594 458.347656 206.308594 C 449.246094 206.308594 441.867188 198.929688 441.867188 189.828125 C 441.867188 180.726562 449.246094 173.347656 458.347656 173.347656 C 467.449219 173.347656 474.824219 180.726562 474.824219 189.828125 "/>
<path fill="none" stroke-width="1" stroke-linecap="butt" stroke-linejoin="miter" stroke="rgb(0%, 0%, 0%)" stroke-opacity="1" stroke-miterlimit="10" d="M 471.53125 189.828125 C 471.53125 197.109375 465.628906 203.011719 458.347656 203.011719 C 451.066406 203.011719 445.164062 197.109375 445.164062 189.828125 C 445.164062 182.546875 451.066406 176.644531 458.347656 176.644531 C 465.628906 176.644531 471.53125 182.546875 471.53125 189.828125 "/>
<g fill="rgb(0%, 0%, 0%)" fill-opacity="1">
<use xlink:href="#glyph-0-0" x="447.003906" y="197.042969"/>
<use xlink:href="#glyph-0-4" x="458.003906" y="197.042969"/>
</g>
<path fill="none" stroke-width="1" stroke-linecap="butt" stroke-linejoin="miter" stroke="rgb(0%, 0%, 0%)" stroke-opacity="1" stroke-miterlimit="10" d="M 475.152344 253.113281 C 475.152344 262.398438 467.628906 269.921875 458.347656 269.921875 C 449.0625 269.921875 441.539062 262.398438 441.539062 253.113281 C 441.539062 243.832031 449.0625 236.308594 458.347656 236.308594 C 467.628906 236.308594 475.152344 243.832031 475.152344 253.113281 "/>
<g fill="rgb(0%, 0%, 0%)" fill-opacity="1">
<use xlink:href="#glyph-0-0" x="446.675781" y="260.292969"/>
<use xlink:href="#glyph-0-5" x="457.675781" y="260.292969"/>
</g>
<path fill="none" stroke-width="1" stroke-linecap="butt" stroke-linejoin="miter" stroke="rgb(0%, 0%, 0%)" stroke-opacity="1" stroke-miterlimit="10" d="M 544.84375 63.210938 C 544.84375 72.378906 537.40625 79.8125 528.238281 79.8125 C 519.066406 79.8125 511.632812 72.378906 511.632812 63.210938 C 511.632812 54.039062 519.066406 46.605469 528.238281 46.605469 C 537.40625 46.605469 544.839844 54.039062 544.839844 63.207031 "/>
<path fill="none" stroke-width="1" stroke-linecap="butt" stroke-linejoin="miter" stroke="rgb(0%, 0%, 0%)" stroke-opacity="1" stroke-miterlimit="10" d="M 541.519531 63.210938 C 541.519531 70.546875 535.574219 76.492188 528.238281 76.492188 C 520.902344 76.492188 514.953125 70.546875 514.953125 63.210938 C 514.953125 55.871094 520.902344 49.925781 528.238281 49.925781 C 535.574219 49.925781 541.519531 55.871094 541.519531 63.207031 "/>
<g fill="rgb(0%, 0%, 0%)" fill-opacity="1">
<use xlink:href="#glyph-0-0" x="516.769531" y="70.265625"/>
<use xlink:href="#glyph-0-6" x="527.769531" y="70.265625"/>
</g>
<path fill="none" stroke-width="1" stroke-linecap="butt" stroke-linejoin="miter" stroke="rgb(0%, 0%, 0%)" stroke-opacity="1" stroke-miterlimit="10" d="M 544.765625 126.496094 C 544.765625 135.621094 537.363281 143.019531 528.238281 143.023438 C 519.109375 143.023438 511.710938 135.621094 511.710938 126.496094 C 511.710938 117.367188 519.109375 109.96875 528.238281 109.96875 C 537.363281 109.96875 544.761719 117.367188 544.761719 126.496094 "/>
<g fill="rgb(0%, 0%, 0%)" fill-opacity="1">
<use xlink:href="#glyph-0-0" x="516.847656" y="133.5625"/>
<use xlink:href="#glyph-0-7" x="527.847656" y="133.5625"/>
</g>
<path fill="none" stroke-width="1" stroke-linecap="butt" stroke-linejoin="miter" stroke="rgb(0%, 0%, 0%)" stroke-opacity="1" stroke-miterlimit="10" d="M 544.96875 253.113281 C 544.96875 262.355469 537.476562 269.84375 528.238281 269.84375 C 518.996094 269.84375 511.507812 262.355469 511.507812 253.113281 C 511.507812 243.875 518.996094 236.386719 528.238281 236.386719 C 537.476562 236.386719 544.964844 243.875 544.964844 253.113281 "/>
<g fill="rgb(0%, 0%, 0%)" fill-opacity="1">
<use xlink:href="#glyph-0-0" x="516.644531" y="260.046875"/>
<use xlink:href="#glyph-0-8" x="527.644531" y="260.046875"/>
</g>
<path fill="none" stroke-width="1" stroke-linecap="butt" stroke-linejoin="miter" stroke="rgb(0%, 0%, 0%)" stroke-opacity="1" stroke-miterlimit="10" d="M 545.839844 378.457031 C 545.839844 388.179688 537.960938 396.0625 528.238281 396.0625 C 518.515625 396.0625 510.632812 388.179688 510.632812 378.457031 C 510.632812 368.734375 518.515625 360.855469 528.238281 360.855469 C 537.960938 360.855469 545.839844 368.734375 545.839844 378.457031 "/>
<path fill="none" stroke-width="1" stroke-linecap="butt" stroke-linejoin="miter" stroke="rgb(0%, 0%, 0%)" stroke-opacity="1" stroke-miterlimit="10" d="M 542.320312 378.457031 C 542.320312 386.238281 536.015625 392.542969 528.238281 392.542969 C 520.460938 392.542969 514.152344 386.238281 514.152344 378.457031 C 514.152344 370.679688 520.460938 364.375 528.238281 364.375 C 536.015625 364.375 542.320312 370.679688 542.320312 378.457031 "/>
<g fill="rgb(0%, 0%, 0%)" fill-opacity="1">
<use xlink:href="#glyph-0-1" x="517.496094" y="385.546875"/>
<use xlink:href="#glyph-0-9" x="528.496094" y="385.546875"/>
</g>
<path fill="none" stroke-width="1" stroke-linecap="butt" stroke-linejoin="miter" stroke="rgb(0%, 0%, 0%)" stroke-opacity="1" stroke-miterlimit="10" d="M 615.0625 126.496094 C 615.0625 135.816406 607.503906 143.371094 598.1875 143.371094 C 588.867188 143.371094 581.3125 135.816406 581.3125 126.496094 C 581.3125 117.175781 588.867188 109.621094 598.1875 109.621094 C 607.503906 109.621094 615.058594 117.175781 615.058594 126.496094 "/>
<g fill="rgb(0%, 0%, 0%)" fill-opacity="1">
<use xlink:href="#glyph-0-1" x="588.175781" y="133.683594"/>
<use xlink:href="#glyph-0-0" x="599.175781" y="133.683594"/>
</g>
<path fill="none" stroke-width="1" stroke-linecap="butt" stroke-linejoin="miter" stroke="rgb(0%, 0%, 0%)" stroke-opacity="1" stroke-miterlimit="10" d="M 615.925781 253.113281 C 615.925781 262.914062 607.984375 270.855469 598.1875 270.855469 C 588.386719 270.855469 580.445312 262.914062 580.445312 253.113281 C 580.445312 243.316406 588.386719 235.375 598.1875 235.375 C 607.984375 235.375 615.925781 243.316406 615.925781 253.113281 "/>
<g fill="rgb(0%, 0%, 0%)" fill-opacity="1">
<use xlink:href="#glyph-0-1" x="587.3125" y="260.300781"/>
<use xlink:href="#glyph-0-1" x="598.3125" y="260.300781"/>
</g>
<path fill="none" stroke-width="1" stroke-linecap="butt" stroke-linejoin="miter" stroke="rgb(0%, 0%, 0%)" stroke-opacity="1" stroke-miterlimit="10" d="M 686 253.113281 C 686 262.667969 678.253906 270.410156 668.703125 270.410156 C 659.148438 270.410156 651.40625 262.667969 651.40625 253.113281 C 651.40625 243.5625 659.148438 235.820312 668.703125 235.820312 C 678.253906 235.816406 685.996094 243.5625 685.996094 253.113281 "/>
<path fill="none" stroke-width="1" stroke-linecap="butt" stroke-linejoin="miter" stroke="rgb(0%, 0%, 0%)" stroke-opacity="1" stroke-miterlimit="10" d="M 682.539062 253.113281 C 682.539062 260.757812 676.34375 266.953125 668.703125 266.953125 C 661.058594 266.953125 654.863281 260.757812 654.863281 253.113281 C 654.863281 245.472656 661.058594 239.277344 668.703125 239.277344 C 676.34375 239.277344 682.539062 245.472656 682.539062 253.113281 "/>
<g fill="rgb(0%, 0%, 0%)" fill-opacity="1">
<use xlink:href="#glyph-0-1" x="658.269531" y="260.253906"/>
<use xlink:href="#glyph-0-2" x="669.269531" y="260.253906"/>
</g>
<path fill="none" stroke-width="1" stroke-linecap="butt" stroke-linejoin="miter" stroke="rgb(0%, 0%, 0%)" stroke-opacity="1" stroke-miterlimit="10" d="M 64.917969 203.976562 L 120.5625 364.289062 "/>
<path fill-rule="nonzero" fill="rgb(0%, 0%, 0%)" fill-opacity="1" d="M 120.5625 364.289062 L 113.917969 356.816406 L 121.148438 354.304688 L 120.5625 364.289062 "/>
<path fill="none" stroke-width="1" stroke-linecap="butt" stroke-linejoin="miter" stroke="rgb(0%, 0%, 0%)" stroke-opacity="1" stroke-miterlimit="10" d="M 70.785156 200.230469 L 125.480469 253.113281 "/>
<path fill="none" stroke-width="1" stroke-linecap="butt" stroke-linejoin="miter" stroke="rgb(0%, 0%, 0%)" stroke-opacity="1" stroke-miterlimit="10" d="M 70.785156 179.378906 L 125.480469 126.496094 "/>
<path fill="none" stroke-width="1" stroke-linecap="butt" stroke-linejoin="miter" stroke="rgb(0%, 0%, 0%)" stroke-opacity="1" stroke-miterlimit="10" d="M 66.890625 176.480469 L 125.480469 63.210938 "/>
<path fill="none" stroke-width="1" stroke-linecap="butt" stroke-linejoin="miter" stroke="rgb(0%, 0%, 0%)" stroke-opacity="1" stroke-miterlimit="10" d="M 73.589844 402.6875 L 111.886719 384.804688 "/>
<path fill-rule="nonzero" fill="rgb(0%, 0%, 0%)" fill-opacity="1" d="M 111.886719 384.804688 L 105.136719 392.179688 L 101.898438 385.246094 L 111.886719 384.804688 "/>
<path fill="none" stroke-width="1" stroke-linecap="butt" stroke-linejoin="miter" stroke="rgb(0%, 0%, 0%)" stroke-opacity="1" stroke-miterlimit="10" d="M 125.480469 440.335938 L 458.347656 440.335938 "/>
<g fill="rgb(0%, 0%, 0%)" fill-opacity="1">
<use xlink:href="#glyph-1-0" x="281.257812" y="462.054688"/>
</g>
<path fill="none" stroke-width="1" stroke-linecap="butt" stroke-linejoin="miter" stroke="rgb(0%, 0%, 0%)" stroke-opacity="1" stroke-miterlimit="10" d="M 132.425781 365.164062 L 184.011719 266.410156 "/>
<path fill-rule="nonzero" fill="rgb(0%, 0%, 0%)" fill-opacity="1" d="M 184.011719 266.410156 L 183.128906 276.371094 L 176.34375 272.828125 L 184.011719 266.410156 "/>
<path fill="none" stroke-width="1" stroke-linecap="butt" stroke-linejoin="miter" stroke="rgb(0%, 0%, 0%)" stroke-opacity="1" stroke-miterlimit="10" d="M 140.480469 378.457031 L 175.960938 378.457031 "/>
<path fill-rule="nonzero" fill="rgb(0%, 0%, 0%)" fill-opacity="1" d="M 175.960938 378.457031 L 166.71875 382.285156 L 166.71875 374.632812 L 175.960938 378.457031 "/>
<path fill="none" stroke-width="1" stroke-linecap="butt" stroke-linejoin="miter" stroke="rgb(0%, 0%, 0%)" stroke-opacity="1" stroke-miterlimit="10" d="M 205.960938 253.113281 L 241.4375 253.113281 "/>
<path fill-rule="nonzero" fill="rgb(0%, 0%, 0%)" fill-opacity="1" d="M 241.4375 253.113281 L 232.199219 256.941406 L 232.199219 249.289062 L 241.4375 253.113281 "/>
<path fill="none" stroke-width="1" stroke-linecap="butt" stroke-linejoin="miter" stroke="rgb(0%, 0%, 0%)" stroke-opacity="1" stroke-miterlimit="10" d="M 205.960938 378.457031 L 241.4375 378.457031 "/>
<path fill-rule="nonzero" fill="rgb(0%, 0%, 0%)" fill-opacity="1" d="M 241.4375 378.457031 L 232.199219 382.285156 L 232.199219 374.632812 L 241.4375 378.457031 "/>
<path fill="none" stroke-width="1" stroke-linecap="butt" stroke-linejoin="miter" stroke="rgb(0%, 0%, 0%)" stroke-opacity="1" stroke-miterlimit="10" d="M 267.222656 242.691406 L 311.132812 200.253906 "/>
<path fill-rule="nonzero" fill="rgb(0%, 0%, 0%)" fill-opacity="1" d="M 311.132812 200.253906 L 307.148438 209.425781 L 301.828125 203.921875 L 311.132812 200.253906 "/>
<path fill="none" stroke-width="1" stroke-linecap="butt" stroke-linejoin="miter" stroke="rgb(0%, 0%, 0%)" stroke-opacity="1" stroke-miterlimit="10" d="M 271.4375 253.113281 L 441.539062 253.113281 "/>
<path fill-rule="nonzero" fill="rgb(0%, 0%, 0%)" fill-opacity="1" d="M 441.539062 253.113281 L 432.300781 256.941406 L 432.300781 249.289062 L 441.539062 253.113281 "/>
<path fill="none" stroke-width="1" stroke-linecap="butt" stroke-linejoin="miter" stroke="rgb(0%, 0%, 0%)" stroke-opacity="1" stroke-miterlimit="10" d="M 321.917969 315.855469 L 598.1875 315.855469 "/>
<path fill="none" stroke-width="1" stroke-linecap="butt" stroke-linejoin="miter" stroke="rgb(0%, 0%, 0%)" stroke-opacity="1" stroke-miterlimit="10" d="M 271.4375 378.457031 L 306.917969 378.457031 "/>
<path fill-rule="nonzero" fill="rgb(0%, 0%, 0%)" fill-opacity="1" d="M 306.917969 378.457031 L 297.679688 382.285156 L 297.679688 374.632812 L 306.917969 378.457031 "/>
<path fill="none" stroke-width="1" stroke-linecap="butt" stroke-linejoin="miter" stroke="rgb(0%, 0%, 0%)" stroke-opacity="1" stroke-miterlimit="10" d="M 332.847656 179.554688 L 377.078125 137.960938 "/>
<path fill-rule="nonzero" fill="rgb(0%, 0%, 0%)" fill-opacity="1" d="M 377.078125 137.960938 L 372.96875 147.078125 L 367.726562 141.503906 L 377.078125 137.960938 "/>
<path fill="none" stroke-width="1" stroke-linecap="butt" stroke-linejoin="miter" stroke="rgb(0%, 0%, 0%)" stroke-opacity="1" stroke-miterlimit="10" d="M 336.917969 189.828125 L 373.761719 189.828125 "/>
<path fill-rule="nonzero" fill="rgb(0%, 0%, 0%)" fill-opacity="1" d="M 373.761719 189.828125 L 364.523438 193.65625 L 364.523438 186 L 373.761719 189.828125 "/>
<path fill="none" stroke-width="1" stroke-linecap="butt" stroke-linejoin="miter" stroke="rgb(0%, 0%, 0%)" stroke-opacity="1" stroke-miterlimit="10" d="M 336.917969 378.457031 L 372.398438 378.457031 "/>
<path fill-rule="nonzero" fill="rgb(0%, 0%, 0%)" fill-opacity="1" d="M 372.398438 378.457031 L 363.160156 382.285156 L 363.160156 374.632812 L 372.398438 378.457031 "/>
<path fill="none" stroke-width="1" stroke-linecap="butt" stroke-linejoin="miter" stroke="rgb(0%, 0%, 0%)" stroke-opacity="1" stroke-miterlimit="10" d="M 401.617188 115.1875 L 446.230469 74.308594 "/>
<path fill-rule="nonzero" fill="rgb(0%, 0%, 0%)" fill-opacity="1" d="M 446.230469 74.308594 L 442.003906 83.371094 L 436.832031 77.730469 L 446.230469 74.308594 "/>
<path fill="none" stroke-width="1" stroke-linecap="butt" stroke-linejoin="miter" stroke="rgb(0%, 0%, 0%)" stroke-opacity="1" stroke-miterlimit="10" d="M 406.011719 126.496094 L 441.492188 126.496094 "/>
<path fill-rule="nonzero" fill="rgb(0%, 0%, 0%)" fill-opacity="1" d="M 441.492188 126.496094 L 432.253906 130.320312 L 432.253906 122.667969 L 441.492188 126.496094 "/>
<path fill="none" stroke-width="1" stroke-linecap="butt" stroke-linejoin="miter" stroke="rgb(0%, 0%, 0%)" stroke-opacity="1" stroke-miterlimit="10" d="M 401.609375 137.808594 L 446.199219 178.691406 "/>
<path fill-rule="nonzero" fill="rgb(0%, 0%, 0%)" fill-opacity="1" d="M 446.199219 178.691406 L 436.804688 175.269531 L 441.976562 169.628906 L 446.199219 178.691406 "/>
<path fill="none" stroke-width="1" stroke-linecap="butt" stroke-linejoin="miter" stroke="rgb(0%, 0%, 0%)" stroke-opacity="1" stroke-miterlimit="10" d="M 404.78125 189.828125 L 441.867188 189.828125 "/>
<path fill-rule="nonzero" fill="rgb(0%, 0%, 0%)" fill-opacity="1" d="M 441.867188 189.828125 L 432.628906 193.65625 L 432.628906 186 L 441.867188 189.828125 "/>
<path fill="none" stroke-width="1" stroke-linecap="butt" stroke-linejoin="miter" stroke="rgb(0%, 0%, 0%)" stroke-opacity="1" stroke-miterlimit="10" d="M 400.707031 200.304688 L 445.953125 241.761719 "/>
<path fill-rule="nonzero" fill="rgb(0%, 0%, 0%)" fill-opacity="1" d="M 445.953125 241.761719 L 436.554688 238.339844 L 441.726562 232.699219 L 445.953125 241.761719 "/>
<path fill="none" stroke-width="1" stroke-linecap="butt" stroke-linejoin="miter" stroke="rgb(0%, 0%, 0%)" stroke-opacity="1" stroke-miterlimit="10" d="M 406.148438 378.457031 L 510.632812 378.457031 "/>
<path fill-rule="nonzero" fill="rgb(0%, 0%, 0%)" fill-opacity="1" d="M 510.632812 378.457031 L 501.394531 382.285156 L 501.394531 374.632812 L 510.632812 378.457031 "/>
<path fill="none" stroke-width="1" stroke-linecap="butt" stroke-linejoin="miter" stroke="rgb(0%, 0%, 0%)" stroke-opacity="1" stroke-miterlimit="10" d="M 474.777344 63.210938 L 511.632812 63.210938 "/>
<path fill-rule="nonzero" fill="rgb(0%, 0%, 0%)" fill-opacity="1" d="M 511.632812 63.210938 L 502.394531 67.035156 L 502.394531 59.382812 L 511.632812 63.210938 "/>
<path fill="none" stroke-width="1" stroke-linecap="butt" stroke-linejoin="miter" stroke="rgb(0%, 0%, 0%)" stroke-opacity="1" stroke-miterlimit="10" d="M 470.839844 115.183594 L 515.929688 74.355469 "/>
<path fill-rule="nonzero" fill="rgb(0%, 0%, 0%)" fill-opacity="1" d="M 515.929688 74.355469 L 511.648438 83.390625 L 506.511719 77.71875 L 515.929688 74.355469 "/>
<path fill="none" stroke-width="1" stroke-linecap="butt" stroke-linejoin="miter" stroke="rgb(0%, 0%, 0%)" stroke-opacity="1" stroke-miterlimit="10" d="M 475.199219 126.496094 L 511.710938 126.496094 "/>
<path fill-rule="nonzero" fill="rgb(0%, 0%, 0%)" fill-opacity="1" d="M 511.710938 126.496094 L 502.472656 130.320312 L 502.472656 122.667969 L 511.710938 126.496094 "/>
<path fill="none" stroke-width="1" stroke-linecap="butt" stroke-linejoin="miter" stroke="rgb(0%, 0%, 0%)" stroke-opacity="1" stroke-miterlimit="10" d="M 466.46875 238.398438 L 520.25 140.964844 "/>
<path fill-rule="nonzero" fill="rgb(0%, 0%, 0%)" fill-opacity="1" d="M 520.25 140.964844 L 519.136719 150.902344 L 512.4375 147.203125 L 520.25 140.964844 "/>
<path fill="none" stroke-width="1" stroke-linecap="butt" stroke-linejoin="miter" stroke="rgb(0%, 0%, 0%)" stroke-opacity="1" stroke-miterlimit="10" d="M 475.152344 253.113281 L 511.507812 253.113281 "/>
<path fill-rule="nonzero" fill="rgb(0%, 0%, 0%)" fill-opacity="1" d="M 511.507812 253.113281 L 502.269531 256.941406 L 502.269531 249.289062 L 511.507812 253.113281 "/>
<path fill="none" stroke-width="1" stroke-linecap="butt" stroke-linejoin="miter" stroke="rgb(0%, 0%, 0%)" stroke-opacity="1" stroke-miterlimit="10" d="M 466.53125 267.792969 L 519.664062 363.082031 "/>
<path fill-rule="nonzero" fill="rgb(0%, 0%, 0%)" fill-opacity="1" d="M 519.664062 363.082031 L 511.824219 356.878906 L 518.507812 353.148438 L 519.664062 363.082031 "/>
<path fill="none" stroke-width="1" stroke-linecap="butt" stroke-linejoin="miter" stroke="rgb(0%, 0%, 0%)" stroke-opacity="1" stroke-miterlimit="10" d="M 544.765625 126.496094 L 581.3125 126.496094 "/>
<path fill-rule="nonzero" fill="rgb(0%, 0%, 0%)" fill-opacity="1" d="M 581.3125 126.496094 L 572.074219 130.320312 L 572.074219 122.667969 L 581.3125 126.496094 "/>
<path fill="none" stroke-width="1" stroke-linecap="butt" stroke-linejoin="miter" stroke="rgb(0%, 0%, 0%)" stroke-opacity="1" stroke-miterlimit="10" d="M 544.96875 253.113281 L 580.445312 253.113281 "/>
<path fill-rule="nonzero" fill="rgb(0%, 0%, 0%)" fill-opacity="1" d="M 580.445312 253.113281 L 571.207031 256.941406 L 571.207031 249.289062 L 580.445312 253.113281 "/>
<path fill="none" stroke-width="1" stroke-linecap="butt" stroke-linejoin="miter" stroke="rgb(0%, 0%, 0%)" stroke-opacity="1" stroke-miterlimit="10" d="M 606.394531 141.238281 L 660.285156 238.003906 "/>
<path fill-rule="nonzero" fill="rgb(0%, 0%, 0%)" fill-opacity="1" d="M 660.285156 238.003906 L 652.449219 231.792969 L 659.132812 228.070312 L 660.285156 238.003906 "/>
<path fill="none" stroke-width="1" stroke-linecap="butt" stroke-linejoin="miter" stroke="rgb(0%, 0%, 0%)" stroke-opacity="1" stroke-miterlimit="10" d="M 615.925781 253.113281 L 651.40625 253.113281 "/>
<path fill-rule="nonzero" fill="rgb(0%, 0%, 0%)" fill-opacity="1" d="M 651.40625 253.113281 L 642.167969 256.941406 L 642.167969 249.289062 L 651.40625 253.113281 "/>
<path fill="none" stroke-width="1" stroke-linecap="butt" stroke-linejoin="miter" stroke="rgb(0%, 0%, 0%)" stroke-opacity="1" stroke-miterlimit="10" d="M 125.480469 253.113281 L 175.960938 253.113281 "/>
<path fill-rule="nonzero" fill="rgb(0%, 0%, 0%)" fill-opacity="1" d="M 175.960938 253.113281 L 166.71875 256.941406 L 166.71875 249.289062 L 175.960938 253.113281 "/>
<path fill="none" stroke-width="1" stroke-linecap="butt" stroke-linejoin="miter" stroke="rgb(0%, 0%, 0%)" stroke-opacity="1" stroke-miterlimit="10" d="M 125.480469 126.496094 L 372.53125 126.496094 "/>
<path fill-rule="nonzero" fill="rgb(0%, 0%, 0%)" fill-opacity="1" d="M 372.53125 126.496094 L 363.292969 130.320312 L 363.292969 122.667969 L 372.53125 126.496094 "/>
<path fill="none" stroke-width="1" stroke-linecap="butt" stroke-linejoin="miter" stroke="rgb(0%, 0%, 0%)" stroke-opacity="1" stroke-miterlimit="10" d="M 125.480469 63.210938 L 441.914062 63.210938 "/>
<path fill-rule="nonzero" fill="rgb(0%, 0%, 0%)" fill-opacity="1" d="M 441.914062 63.210938 L 432.675781 67.035156 L 432.675781 59.382812 L 441.914062 63.210938 "/>
<path fill="none" stroke-width="1" stroke-linecap="butt" stroke-linejoin="miter" stroke="rgb(0%, 0%, 0%)" stroke-opacity="1" stroke-miterlimit="10" d="M 73.53125 415.5 L 125.480469 440.335938 "/>
<path fill="none" stroke-width="1" stroke-linecap="butt" stroke-linejoin="miter" stroke="rgb(0%, 0%, 0%)" stroke-opacity="1" stroke-miterlimit="10" d="M 458.347656 440.335938 L 515.054688 390.128906 "/>
<path fill-rule="nonzero" fill="rgb(0%, 0%, 0%)" fill-opacity="1" d="M 515.054688 390.128906 L 510.675781 399.117188 L 505.601562 393.386719 L 515.054688 390.128906 "/>
<path fill="none" stroke-width="1" stroke-linecap="butt" stroke-linejoin="miter" stroke="rgb(0%, 0%, 0%)" stroke-opacity="1" stroke-miterlimit="10" d="M 267.269531 263.492188 L 321.917969 315.855469 "/>
<path fill="none" stroke-width="1" stroke-linecap="butt" stroke-linejoin="miter" stroke="rgb(0%, 0%, 0%)" stroke-opacity="1" stroke-miterlimit="10" d="M 598.1875 315.855469 L 655.78125 264.613281 "/>
<path fill-rule="nonzero" fill="rgb(0%, 0%, 0%)" fill-opacity="1" d="M 655.78125 264.613281 L 651.421875 273.613281 L 646.332031 267.894531 L 655.78125 264.613281 "/>
</svg>
