<?xml version="1.0" encoding="UTF-8"?>
<svg xmlns="http://www.w3.org/2000/svg" xmlns:xlink="http://www.w3.org/1999/xlink" width="533.210938" height="683.979004" viewBox="0 0 533.210938 683.979004">
<defs>
<g>
<g id="glyph-0-0">
<path d="M 6.3125 -14.3125 C 6.339844 -14.277344 6.355469 -14.25 6.359375 -14.234375 C 6.363281 -14.21875 6.363281 -14.175781 6.363281 -14.113281 L 6.363281 -1.574219 C 6.363281 -1.039062 6.507812 -0.699219 6.792969 -0.550781 C 7.078125 -0.40625 7.609375 -0.320312 8.386719 -0.292969 L 8.386719 0 L 2.511719 0 L 2.511719 -0.3125 C 3.351562 -0.355469 3.898438 -0.46875 4.15625 -0.65625 C 4.414062 -0.84375 4.542969 -1.25 4.542969 -1.875 L 4.542969 -11.519531 C 4.542969 -11.855469 4.5 -12.109375 4.417969 -12.28125 C 4.332031 -12.453125 4.152344 -12.542969 3.875 -12.542969 C 3.695312 -12.542969 3.460938 -12.492188 3.171875 -12.390625 C 2.882812 -12.289062 2.613281 -12.183594 2.363281 -12.074219 L 2.363281 -12.363281 L 6.1875 -14.3125 Z M 6.3125 -14.3125 "/>
</g>
<g id="glyph-0-1">
<path d="M 0.636719 -0.238281 C 3.175781 -2.878906 4.902344 -4.816406 5.8125 -6.050781 C 6.722656 -7.289062 7.175781 -8.492188 7.175781 -9.667969 C 7.175781 -10.695312 6.898438 -11.476562 6.34375 -12.015625 C 5.789062 -12.554688 5.125 -12.824219 4.355469 -12.824219 C 3.402344 -12.824219 2.632812 -12.476562 2.042969 -11.78125 C 1.714844 -11.398438 1.402344 -10.8125 1.105469 -10.019531 L 0.65625 -10.113281 C 1.003906 -11.710938 1.59375 -12.820312 2.421875 -13.441406 C 3.25 -14.0625 4.140625 -14.375 5.09375 -14.375 C 6.265625 -14.375 7.21875 -14.003906 7.941406 -13.265625 C 8.667969 -12.527344 9.03125 -11.621094 9.03125 -10.550781 C 9.03125 -9.414062 8.640625 -8.316406 7.855469 -7.261719 C 7.070312 -6.207031 5.363281 -4.328125 2.738281 -1.625 L 7.519531 -1.625 C 8.1875 -1.625 8.65625 -1.703125 8.925781 -1.863281 C 9.199219 -2.023438 9.503906 -2.414062 9.84375 -3.03125 L 10.113281 -2.90625 L 8.957031 0 L 0.636719 0 Z M 0.636719 -0.238281 "/>
</g>
<g id="glyph-0-2">
<path d="M 1.65625 -1.8125 C 2.039062 -1.8125 2.542969 -1.613281 3.171875 -1.21875 C 3.800781 -0.824219 4.332031 -0.625 4.769531 -0.625 C 5.742188 -0.625 6.464844 -0.953125 6.9375 -1.609375 C 7.410156 -2.265625 7.644531 -2.980469 7.644531 -3.75 C 7.644531 -4.492188 7.453125 -5.144531 7.074219 -5.707031 C 6.425781 -6.660156 5.335938 -7.136719 3.800781 -7.136719 C 3.710938 -7.136719 3.625 -7.132812 3.542969 -7.128906 C 3.457031 -7.125 3.359375 -7.117188 3.25 -7.105469 L 3.230469 -7.375 C 4.339844 -7.777344 5.214844 -8.238281 5.855469 -8.761719 C 6.492188 -9.28125 6.8125 -9.96875 6.8125 -10.824219 C 6.8125 -11.582031 6.5625 -12.15625 6.058594 -12.550781 C 5.554688 -12.949219 4.980469 -13.144531 4.332031 -13.144531 C 3.570312 -13.144531 2.894531 -12.863281 2.3125 -12.300781 C 1.992188 -11.996094 1.648438 -11.523438 1.28125 -10.886719 L 0.957031 -10.957031 C 1.234375 -12.011719 1.753906 -12.859375 2.511719 -13.488281 C 3.269531 -14.121094 4.140625 -14.4375 5.136719 -14.4375 C 6.199219 -14.4375 7.019531 -14.144531 7.597656 -13.5625 C 8.179688 -12.980469 8.46875 -12.304688 8.46875 -11.542969 C 8.46875 -10.867188 8.230469 -10.25 7.75 -9.6875 C 7.480469 -9.367188 7.058594 -9.011719 6.488281 -8.613281 C 7.15625 -8.328125 7.691406 -7.996094 8.09375 -7.613281 C 8.851562 -6.886719 9.230469 -5.960938 9.230469 -4.84375 C 9.230469 -3.523438 8.710938 -2.359375 7.671875 -1.355469 C 6.632812 -0.347656 5.15625 0.15625 3.238281 0.15625 C 2.386719 0.15625 1.785156 0.03125 1.441406 -0.222656 C 1.097656 -0.476562 0.925781 -0.75 0.925781 -1.042969 C 0.925781 -1.222656 0.984375 -1.394531 1.097656 -1.5625 C 1.214844 -1.730469 1.398438 -1.8125 1.65625 -1.8125 Z M 1.65625 -1.8125 "/>
</g>
<g id="glyph-0-3">
<path d="M 6.21875 -12.167969 L 1.105469 -4.9375 L 6.21875 -4.9375 Z M 6.90625 -14.3125 L 7.894531 -14.3125 L 7.894531 -4.9375 L 10.074219 -4.9375 L 10.074219 -3.550781 L 7.894531 -3.550781 L 7.894531 0 L 6.238281 0 L 6.238281 -3.550781 L 0.238281 -3.550781 L 0.238281 -4.9375 Z M 6.90625 -14.3125 "/>
</g>
<g id="glyph-0-4">
<path d="M 1.59375 -1.90625 C 1.988281 -1.90625 2.507812 -1.683594 3.152344 -1.234375 C 3.792969 -0.785156 4.289062 -0.5625 4.636719 -0.5625 C 5.433594 -0.5625 6.132812 -0.914062 6.730469 -1.621094 C 7.328125 -2.324219 7.625 -3.191406 7.625 -4.21875 C 7.625 -6.015625 6.667969 -7.3125 4.75 -8.105469 C 3.6875 -8.542969 2.699219 -8.761719 1.78125 -8.761719 C 1.628906 -8.761719 1.53125 -8.765625 1.496094 -8.777344 C 1.457031 -8.785156 1.410156 -8.824219 1.355469 -8.886719 C 1.367188 -8.941406 1.378906 -8.988281 1.390625 -9.027344 C 1.402344 -9.066406 1.414062 -9.101562 1.425781 -9.136719 L 3.699219 -14.113281 L 8.167969 -14.113281 C 8.390625 -14.113281 8.5625 -14.152344 8.683594 -14.230469 C 8.804688 -14.304688 8.960938 -14.449219 9.15625 -14.65625 L 9.324219 -14.511719 L 8.511719 -12.582031 C 8.484375 -12.519531 8.40625 -12.480469 8.28125 -12.464844 C 8.15625 -12.445312 8.019531 -12.4375 7.875 -12.4375 L 3.84375 -12.4375 L 2.957031 -10.613281 C 4.097656 -10.417969 4.929688 -10.234375 5.457031 -10.0625 C 6.324219 -9.769531 7.050781 -9.339844 7.636719 -8.769531 C 8.136719 -8.277344 8.515625 -7.722656 8.769531 -7.109375 C 9.027344 -6.496094 9.15625 -5.84375 9.15625 -5.15625 C 9.15625 -3.621094 8.609375 -2.339844 7.515625 -1.3125 C 6.421875 -0.285156 5.039062 0.230469 3.363281 0.230469 C 2.683594 0.230469 2.136719 0.164062 1.71875 0.03125 C 1.023438 -0.183594 0.675781 -0.570312 0.675781 -1.125 C 0.675781 -1.332031 0.75 -1.515625 0.902344 -1.671875 C 1.050781 -1.828125 1.28125 -1.90625 1.59375 -1.90625 Z M 1.59375 -1.90625 "/>
</g>
<g id="glyph-0-5">
<path d="M 9.980469 -4.738281 C 9.980469 -3.46875 9.570312 -2.324219 8.753906 -1.300781 C 7.9375 -0.28125 6.878906 0.230469 5.574219 0.230469 C 4.351562 0.230469 3.238281 -0.34375 2.234375 -1.488281 C 1.230469 -2.636719 0.730469 -4.160156 0.730469 -6.0625 C 0.730469 -8.515625 1.703125 -10.617188 3.644531 -12.375 C 5.382812 -13.847656 7.332031 -14.582031 9.5 -14.582031 L 9.550781 -14.238281 C 8.683594 -14.078125 7.9375 -13.863281 7.308594 -13.589844 C 6.679688 -13.316406 6.117188 -12.929688 5.625 -12.4375 C 5.117188 -11.9375 4.640625 -11.300781 4.199219 -10.53125 C 3.753906 -9.761719 3.449219 -8.996094 3.28125 -8.238281 C 3.710938 -8.503906 4.082031 -8.699219 4.394531 -8.824219 C 4.949219 -9.046875 5.511719 -9.15625 6.074219 -9.15625 C 7.175781 -9.15625 8.105469 -8.773438 8.855469 -8.011719 C 9.605469 -7.246094 9.980469 -6.15625 9.980469 -4.738281 Z M 8.074219 -3.9375 C 8.074219 -4.859375 7.925781 -5.679688 7.636719 -6.394531 C 7.148438 -7.589844 6.324219 -8.1875 5.15625 -8.1875 C 4.078125 -8.1875 3.363281 -7.867188 3.011719 -7.230469 C 2.800781 -6.855469 2.699219 -6.230469 2.699219 -5.355469 C 2.699219 -4.222656 2.9375 -3.113281 3.421875 -2.03125 C 3.90625 -0.949219 4.667969 -0.40625 5.707031 -0.40625 C 6.535156 -0.40625 7.136719 -0.757812 7.511719 -1.464844 C 7.886719 -2.167969 8.074219 -2.992188 8.074219 -3.9375 Z M 8.074219 -3.9375 "/>
</g>
<g id="glyph-0-6">
<path d="M 9.574219 -14.113281 L 9.574219 -13.769531 L 5.050781 0.199219 L 3.675781 0.199219 L 7.894531 -12.542969 L 3.355469 -12.542969 C 2.679688 -12.542969 2.195312 -12.429688 1.902344 -12.207031 C 1.605469 -11.984375 1.234375 -11.519531 0.78125 -10.8125 L 0.417969 -10.980469 C 0.867188 -12.089844 1.148438 -12.777344 1.253906 -13.035156 C 1.363281 -13.296875 1.503906 -13.65625 1.675781 -14.113281 Z M 9.574219 -14.113281 "/>
</g>
<g id="glyph-0-7">
<path d="M 5.363281 -0.355469 C 6.164062 -0.355469 6.765625 -0.578125 7.175781 -1.019531 C 7.585938 -1.464844 7.792969 -2.019531 7.792969 -2.6875 C 7.792969 -3.445312 7.574219 -4.058594 7.140625 -4.527344 C 6.707031 -4.996094 5.816406 -5.703125 4.46875 -6.65625 C 3.871094 -6.28125 3.4375 -5.796875 3.167969 -5.199219 C 2.894531 -4.601562 2.761719 -4.023438 2.761719 -3.46875 C 2.761719 -2.515625 3.003906 -1.761719 3.496094 -1.199219 C 3.984375 -0.636719 4.609375 -0.355469 5.363281 -0.355469 Z M 5.5 -8.3125 C 6.152344 -8.769531 6.605469 -9.15625 6.855469 -9.46875 C 7.285156 -10.003906 7.5 -10.648438 7.5 -11.40625 C 7.5 -12.066406 7.296875 -12.625 6.890625 -13.089844 C 6.484375 -13.550781 5.867188 -13.78125 5.042969 -13.78125 C 4.402344 -13.78125 3.875 -13.578125 3.457031 -13.175781 C 3.042969 -12.773438 2.832031 -12.285156 2.832031 -11.707031 C 2.832031 -11.054688 3.078125 -10.449219 3.566406 -9.890625 C 4.058594 -9.332031 4.703125 -8.804688 5.5 -8.3125 Z M 3.894531 -7.105469 C 2.980469 -7.839844 2.355469 -8.425781 2.019531 -8.863281 C 1.507812 -9.53125 1.25 -10.265625 1.25 -11.074219 C 1.25 -11.988281 1.628906 -12.765625 2.390625 -13.40625 C 3.152344 -14.046875 4.140625 -14.363281 5.355469 -14.363281 C 6.472656 -14.363281 7.359375 -14.0625 8.019531 -13.457031 C 8.679688 -12.855469 9.011719 -12.152344 9.011719 -11.355469 C 9.011719 -10.542969 8.671875 -9.8125 8 -9.167969 C 7.609375 -8.800781 6.984375 -8.375 6.113281 -7.894531 C 7.292969 -7.019531 8.140625 -6.257812 8.652344 -5.609375 C 9.160156 -4.960938 9.417969 -4.195312 9.417969 -3.3125 C 9.417969 -2.3125 9.039062 -1.472656 8.285156 -0.792969 C 7.53125 -0.113281 6.523438 0.230469 5.261719 0.230469 C 4.128906 0.230469 3.15625 -0.0859375 2.347656 -0.714844 C 1.539062 -1.34375 1.136719 -2.171875 1.136719 -3.199219 C 1.136719 -4.082031 1.417969 -4.859375 1.980469 -5.53125 C 2.347656 -5.96875 2.984375 -6.492188 3.894531 -7.105469 Z M 3.894531 -7.105469 "/>
</g>
<g id="glyph-0-8">
<path d="M 5.324219 -5.96875 C 5.796875 -5.96875 6.28125 -6.101562 6.785156 -6.363281 C 7.289062 -6.628906 7.578125 -6.851562 7.644531 -7.03125 C 7.671875 -7.101562 7.699219 -7.359375 7.71875 -7.808594 C 7.738281 -8.253906 7.75 -8.617188 7.75 -8.894531 C 7.75 -10.339844 7.507812 -11.515625 7.019531 -12.417969 C 6.535156 -13.320312 5.824219 -13.769531 4.886719 -13.769531 C 4.207031 -13.769531 3.65625 -13.460938 3.234375 -12.84375 C 2.8125 -12.226562 2.605469 -11.300781 2.605469 -10.074219 C 2.605469 -9.058594 2.800781 -8.121094 3.191406 -7.261719 C 3.585938 -6.398438 4.296875 -5.96875 5.324219 -5.96875 Z M 5.03125 -14.363281 C 6.558594 -14.363281 7.738281 -13.753906 8.574219 -12.535156 C 9.40625 -11.316406 9.824219 -9.957031 9.824219 -8.457031 C 9.824219 -7.402344 9.625 -6.328125 9.230469 -5.238281 C 8.832031 -4.148438 8.257812 -3.175781 7.5 -2.324219 C 6.617188 -1.335938 5.5 -0.605469 4.144531 -0.125 C 3.386719 0.144531 2.433594 0.355469 1.28125 0.5 L 1.175781 0.0820312 C 1.898438 -0.0820312 2.5 -0.261719 2.980469 -0.449219 C 3.839844 -0.789062 4.53125 -1.203125 5.050781 -1.699219 C 5.789062 -2.398438 6.375 -3.183594 6.816406 -4.046875 C 7.257812 -4.910156 7.535156 -5.636719 7.644531 -6.21875 L 7.28125 -5.949219 C 6.765625 -5.558594 6.164062 -5.292969 5.46875 -5.144531 C 5.109375 -5.0625 4.777344 -5.019531 4.480469 -5.019531 C 3.300781 -5.019531 2.363281 -5.4375 1.671875 -6.277344 C 0.980469 -7.113281 0.636719 -8.109375 0.636719 -9.269531 C 0.636719 -10.75 1.046875 -11.96875 1.871094 -12.925781 C 2.691406 -13.886719 3.746094 -14.363281 5.03125 -14.363281 Z M 5.03125 -14.363281 "/>
</g>
<g id="glyph-0-9">
<path d="M 5.105469 -0.386719 C 6.125 -0.386719 6.828125 -0.945312 7.207031 -2.0625 C 7.589844 -3.179688 7.78125 -4.796875 7.78125 -6.917969 C 7.78125 -8.605469 7.667969 -9.953125 7.4375 -10.957031 C 7.007812 -12.832031 6.203125 -13.769531 5.019531 -13.769531 C 3.839844 -13.769531 3.03125 -12.804688 2.59375 -10.875 C 2.363281 -9.847656 2.25 -8.492188 2.25 -6.8125 C 2.25 -5.234375 2.367188 -3.976562 2.605469 -3.03125 C 3.050781 -1.265625 3.882812 -0.386719 5.105469 -0.386719 Z M 5.074219 -14.332031 C 6.671875 -14.332031 7.910156 -13.496094 8.792969 -11.824219 C 9.492188 -10.46875 9.84375 -8.914062 9.84375 -7.15625 C 9.84375 -5.773438 9.628906 -4.472656 9.199219 -3.25 C 8.386719 -0.953125 6.980469 0.199219 4.980469 0.199219 C 3.613281 0.199219 2.484375 -0.421875 1.605469 -1.667969 C 0.660156 -2.992188 0.1875 -4.796875 0.1875 -7.074219 C 0.1875 -8.863281 0.503906 -10.40625 1.136719 -11.699219 C 1.988281 -13.457031 3.300781 -14.332031 5.074219 -14.332031 Z M 5.074219 -14.332031 "/>
</g>
<g id="glyph-1-0">
<path d="M 13.183594 -11.390625 L 16.492188 -11.390625 L 17.28125 -12.457031 L 18.75 -11.070312 C 18.894531 -10.957031 18.964844 -10.871094 18.964844 -10.816406 C 18.964844 -10.757812 18.894531 -10.6875 18.75 -10.601562 L 18.046875 -10.21875 C 17.933594 -7.175781 17.8125 -5.027344 17.683594 -3.777344 C 17.554688 -2.523438 17.382812 -1.695312 17.164062 -1.289062 C 16.941406 -0.886719 16.570312 -0.488281 16.042969 -0.0976562 C 15.515625 0.292969 15.1875 0.492188 15.0625 0.492188 C 14.917969 0.492188 14.832031 0.382812 14.804688 0.171875 C 14.71875 -0.597656 13.839844 -1.160156 12.160156 -1.515625 L 12.246094 -1.878906 C 13.382812 -1.734375 14.195312 -1.664062 14.675781 -1.664062 C 15.160156 -1.664062 15.488281 -1.800781 15.660156 -2.070312 C 15.828125 -2.339844 16.011719 -3.121094 16.203125 -4.414062 C 16.394531 -5.710938 16.511719 -7.835938 16.554688 -10.792969 L 13.097656 -10.792969 C 12.828125 -8.191406 12.453125 -6.363281 11.976562 -5.3125 C 11.5 -4.257812 10.929688 -3.363281 10.261719 -2.625 C 9.59375 -1.882812 8.492188 -1.003906 6.953125 0.0195312 L 6.71875 -0.234375 C 8.625 -1.941406 9.871094 -3.597656 10.453125 -5.207031 C 11.035156 -6.8125 11.433594 -8.675781 11.648438 -10.792969 L 9.152344 -10.792969 C 8.554688 -10.792969 8.070312 -10.714844 7.703125 -10.558594 L 6.933594 -11.5 C 7.472656 -11.429688 8.0625 -11.390625 8.703125 -11.390625 L 11.710938 -11.390625 C 11.78125 -12.359375 11.820312 -13.265625 11.820312 -14.113281 C 11.820312 -14.957031 11.804688 -15.738281 11.777344 -16.449219 L 13.800781 -15.617188 C 14 -15.515625 14.101562 -15.417969 14.101562 -15.316406 C 14.101562 -15.21875 14.003906 -15.113281 13.8125 -15.007812 C 13.621094 -14.902344 13.496094 -14.75 13.441406 -14.558594 C 13.382812 -14.367188 13.339844 -13.953125 13.3125 -13.3125 C 13.285156 -12.671875 13.242188 -12.03125 13.183594 -11.390625 Z M 2.988281 -15.402344 C 4.054688 -14.976562 4.863281 -14.523438 5.417969 -14.046875 C 5.972656 -13.570312 6.25 -13.15625 6.25 -12.800781 C 6.25 -12.273438 6.121094 -11.839844 5.867188 -11.5 C 5.609375 -11.15625 5.328125 -10.988281 5.023438 -10.988281 C 4.71875 -10.988281 4.539062 -11.265625 4.492188 -11.820312 C 4.441406 -12.375 4.265625 -12.957031 3.96875 -13.566406 C 3.667969 -14.179688 3.277344 -14.691406 2.792969 -15.105469 Z M 5.78125 -0.40625 C 6.25 0.078125 6.792969 0.449219 7.414062 0.703125 C 8.03125 0.960938 8.75 1.132812 9.566406 1.226562 C 10.386719 1.320312 11.824219 1.367188 13.886719 1.367188 C 15.949219 1.367188 18.148438 1.203125 20.480469 0.875 L 20.480469 1.238281 C 19.484375 1.550781 18.949219 2.0625 18.878906 2.773438 C 18.863281 2.929688 18.695312 3.007812 18.367188 3.007812 C 17.242188 3.007812 15.726562 2.953125 13.8125 2.847656 C 11.898438 2.742188 10.535156 2.628906 9.71875 2.507812 C 8.898438 2.386719 8.167969 2.179688 7.519531 1.886719 C 6.871094 1.597656 6.335938 1.246094 5.910156 0.84375 C 5.484375 0.4375 5.152344 0.234375 4.917969 0.234375 C 4.683594 0.234375 4.484375 0.289062 4.320312 0.394531 C 4.15625 0.5 3.839844 0.8125 3.371094 1.324219 C 2.902344 1.835938 2.570312 2.238281 2.378906 2.527344 C 2.1875 2.820312 2.054688 2.964844 1.984375 2.964844 C 1.914062 2.964844 1.847656 2.910156 1.792969 2.792969 L 0.894531 1.324219 C 2.929688 0.214844 4.082031 -0.375 4.351562 -0.449219 L 4.351562 -7.230469 L 3.027344 -7.230469 C 2.289062 -7.230469 1.804688 -7.152344 1.578125 -6.996094 L 0.832031 -7.9375 C 1.371094 -7.867188 1.960938 -7.828125 2.601562 -7.828125 L 4.117188 -7.828125 L 4.96875 -9.003906 L 6.378906 -7.742188 C 6.519531 -7.628906 6.59375 -7.535156 6.59375 -7.457031 C 6.59375 -7.378906 6.507812 -7.28125 6.335938 -7.167969 L 5.78125 -6.847656 Z M 5.78125 -0.40625 "/>
</g>
</g>
</defs>
<path fill-rule="nonzero" fill="rgb(100%, 100%, 100%)" fill-opacity="1" d="M 0 0 L 533.210938 0 L 533.210938 683.980469 L 0 683.980469 Z M 0 0 "/>
<path fill="none" stroke-width="1" stroke-linecap="butt" stroke-linejoin="miter" stroke="rgb(0%, 0%, 0%)" stroke-opacity="1" stroke-miterlimit="10" d="M 215.765625 60 C 215.765625 68.285156 209.046875 75 200.765625 75 C 192.480469 75 185.765625 68.285156 185.765625 60 C 185.765625 51.714844 192.480469 45 200.765625 45 C 209.046875 45 215.765625 51.714844 215.765625 60 "/>
<g fill="rgb(0%, 0%, 0%)" fill-opacity="1">
<use xlink:href="#glyph-0-0" x="195.390625" y="67.15625"/>
</g>
<path fill="none" stroke-width="1" stroke-linecap="butt" stroke-linejoin="miter" stroke="rgb(0%, 0%, 0%)" stroke-opacity="1" stroke-miterlimit="10" d="M 454.167969 60 C 454.167969 68.285156 447.453125 75 439.167969 75 C 430.886719 75 424.167969 68.285156 424.167969 60 C 424.167969 51.714844 430.886719 45 439.167969 45 C 447.453125 45 454.167969 51.714844 454.167969 60 "/>
<g fill="rgb(0%, 0%, 0%)" fill-opacity="1">
<use xlink:href="#glyph-0-1" x="433.792969" y="67.1875"/>
</g>
<path fill="none" stroke-width="1" stroke-linecap="butt" stroke-linejoin="miter" stroke="rgb(0%, 0%, 0%)" stroke-opacity="1" stroke-miterlimit="10" d="M 420.855469 120 C 420.855469 128.285156 414.140625 135 405.855469 135 C 397.570312 135 390.855469 128.285156 390.855469 120 C 390.855469 111.714844 397.570312 105 405.855469 105 C 414.140625 105 420.855469 111.714844 420.855469 120 "/>
<g fill="rgb(0%, 0%, 0%)" fill-opacity="1">
<use xlink:href="#glyph-0-2" x="400.777344" y="127.140625"/>
</g>
<path fill="none" stroke-width="1" stroke-linecap="butt" stroke-linejoin="miter" stroke="rgb(0%, 0%, 0%)" stroke-opacity="1" stroke-miterlimit="10" d="M 284.554688 180 C 284.554688 188.285156 277.835938 195 269.554688 195 C 261.269531 195 254.554688 188.285156 254.554688 180 C 254.554688 171.714844 261.269531 165 269.554688 165 C 277.835938 165 284.554688 171.714844 284.554688 180 "/>
<g fill="rgb(0%, 0%, 0%)" fill-opacity="1">
<use xlink:href="#glyph-0-3" x="264.398438" y="187.15625"/>
</g>
<path fill="none" stroke-width="1" stroke-linecap="butt" stroke-linejoin="miter" stroke="rgb(0%, 0%, 0%)" stroke-opacity="1" stroke-miterlimit="10" d="M 420.855469 180 C 420.855469 188.285156 414.140625 195 405.855469 195 C 397.570312 195 390.855469 188.285156 390.855469 180 C 390.855469 171.714844 397.570312 165 405.855469 165 C 414.140625 165 420.855469 171.714844 420.855469 180 "/>
<g fill="rgb(0%, 0%, 0%)" fill-opacity="1">
<use xlink:href="#glyph-0-4" x="400.855469" y="187.214844"/>
</g>
<path fill="none" stroke-width="1" stroke-linecap="butt" stroke-linejoin="miter" stroke="rgb(0%, 0%, 0%)" stroke-opacity="1" stroke-miterlimit="10" d="M 284.554688 240 C 284.554688 248.285156 277.835938 255 269.554688 255 C 261.269531 255 254.554688 248.285156 254.554688 240 C 254.554688 231.714844 261.269531 225 269.554688 225 C 277.835938 225 284.554688 231.714844 284.554688 240 "/>
<g fill="rgb(0%, 0%, 0%)" fill-opacity="1">
<use xlink:href="#glyph-0-5" x="264.199219" y="247.175781"/>
</g>
<path fill="none" stroke-width="1" stroke-linecap="butt" stroke-linejoin="miter" stroke="rgb(0%, 0%, 0%)" stroke-opacity="1" stroke-miterlimit="10" d="M 420.855469 240 C 420.855469 248.285156 414.140625 255 405.855469 255 C 397.570312 255 390.855469 248.285156 390.855469 240 C 390.855469 231.714844 397.570312 225 405.855469 225 C 414.140625 225 420.855469 231.714844 420.855469 240 "/>
<g fill="rgb(0%, 0%, 0%)" fill-opacity="1">
<use xlink:href="#glyph-0-6" x="400.859375" y="246.957031"/>
</g>
<path fill="none" stroke-width="1" stroke-linecap="butt" stroke-linejoin="miter" stroke="rgb(0%, 0%, 0%)" stroke-opacity="1" stroke-miterlimit="10" d="M 215.789062 300 C 215.789062 308.285156 209.070312 315 200.789062 315 C 192.503906 315 185.789062 308.285156 185.789062 300 C 185.785156 291.714844 192.503906 285 200.785156 285 C 209.070312 285 215.785156 291.714844 215.785156 300 "/>
<g fill="rgb(0%, 0%, 0%)" fill-opacity="1">
<use xlink:href="#glyph-0-7" x="195.511719" y="307.066406"/>
</g>
<path fill="none" stroke-width="1" stroke-linecap="butt" stroke-linejoin="miter" stroke="rgb(0%, 0%, 0%)" stroke-opacity="1" stroke-miterlimit="10" d="M 420.855469 300 C 420.855469 308.285156 414.140625 315 405.855469 315 C 397.570312 315 390.855469 308.285156 390.855469 300 C 390.855469 291.714844 397.570312 285 405.855469 285 C 414.140625 285 420.855469 291.714844 420.855469 300 "/>
<g fill="rgb(0%, 0%, 0%)" fill-opacity="1">
<use xlink:href="#glyph-0-8" x="400.625" y="306.933594"/>
</g>
<path fill="none" stroke-width="1" stroke-linecap="butt" stroke-linejoin="miter" stroke="rgb(0%, 0%, 0%)" stroke-opacity="1" stroke-miterlimit="10" d="M 148.714844 361.875 C 148.714844 371.121094 141.21875 378.613281 131.976562 378.617188 C 122.730469 378.617188 115.234375 371.121094 115.234375 361.875 C 115.234375 352.628906 122.730469 345.136719 131.972656 345.136719 C 141.21875 345.136719 148.714844 352.628906 148.714844 361.875 "/>
<g fill="rgb(0%, 0%, 0%)" fill-opacity="1">
<use xlink:href="#glyph-0-0" x="120.371094" y="368.941406"/>
<use xlink:href="#glyph-0-9" x="131.371094" y="368.941406"/>
</g>
<path fill="none" stroke-width="1" stroke-linecap="butt" stroke-linejoin="miter" stroke="rgb(0%, 0%, 0%)" stroke-opacity="1" stroke-miterlimit="10" d="M 216.296875 361.875 C 216.296875 370.441406 209.351562 377.386719 200.789062 377.386719 C 192.222656 377.386719 185.277344 370.441406 185.277344 361.875 C 185.277344 353.308594 192.222656 346.367188 200.785156 346.367188 C 209.351562 346.363281 216.296875 353.308594 216.296875 361.875 "/>
<g fill="rgb(0%, 0%, 0%)" fill-opacity="1">
<use xlink:href="#glyph-0-0" x="190.414062" y="369.03125"/>
<use xlink:href="#glyph-0-0" x="200.414062" y="369.03125"/>
</g>
<path fill="none" stroke-width="1" stroke-linecap="butt" stroke-linejoin="miter" stroke="rgb(0%, 0%, 0%)" stroke-opacity="1" stroke-miterlimit="10" d="M 422.730469 361.875 C 422.730469 371.195312 415.175781 378.75 405.855469 378.75 C 396.535156 378.75 388.980469 371.195312 388.980469 361.875 C 388.980469 352.554688 396.535156 345 405.855469 345 C 415.175781 345 422.730469 352.554688 422.730469 361.875 "/>
<g fill="rgb(0%, 0%, 0%)" fill-opacity="1">
<use xlink:href="#glyph-0-0" x="394.117188" y="369.0625"/>
<use xlink:href="#glyph-0-1" x="405.117188" y="369.0625"/>
</g>
<path fill="none" stroke-width="1" stroke-linecap="butt" stroke-linejoin="miter" stroke="rgb(0%, 0%, 0%)" stroke-opacity="1" stroke-miterlimit="10" d="M 79.640625 425.46875 C 79.640625 434.542969 72.285156 441.902344 63.210938 441.902344 C 54.132812 441.902344 46.777344 434.542969 46.777344 425.46875 C 46.777344 416.394531 54.132812 409.039062 63.207031 409.039062 C 72.285156 409.035156 79.640625 416.394531 79.640625 425.46875 "/>
<g fill="rgb(0%, 0%, 0%)" fill-opacity="1">
<use xlink:href="#glyph-0-0" x="51.914062" y="432.609375"/>
<use xlink:href="#glyph-0-2" x="62.914062" y="432.609375"/>
</g>
<path fill="none" stroke-width="1" stroke-linecap="butt" stroke-linejoin="miter" stroke="rgb(0%, 0%, 0%)" stroke-opacity="1" stroke-miterlimit="10" d="M 148.828125 425.46875 C 148.828125 434.777344 141.28125 442.324219 131.976562 442.324219 C 122.667969 442.324219 115.121094 434.777344 115.121094 425.46875 C 115.121094 416.160156 122.667969 408.617188 131.972656 408.617188 C 141.28125 408.613281 148.828125 416.160156 148.828125 425.46875 "/>
<g fill="rgb(0%, 0%, 0%)" fill-opacity="1">
<use xlink:href="#glyph-0-0" x="120.257812" y="432.625"/>
<use xlink:href="#glyph-0-3" x="131.257812" y="432.625"/>
</g>
<path fill="none" stroke-width="1" stroke-linecap="butt" stroke-linejoin="miter" stroke="rgb(0%, 0%, 0%)" stroke-opacity="1" stroke-miterlimit="10" d="M 217.265625 425.46875 C 217.265625 434.570312 209.886719 441.949219 200.789062 441.949219 C 191.6875 441.949219 184.308594 434.570312 184.308594 425.46875 C 184.308594 416.367188 191.6875 408.992188 200.785156 408.992188 C 209.886719 408.988281 217.265625 416.367188 217.265625 425.46875 "/>
<path fill="none" stroke-width="1" stroke-linecap="butt" stroke-linejoin="miter" stroke="rgb(0%, 0%, 0%)" stroke-opacity="1" stroke-miterlimit="10" d="M 213.96875 425.46875 C 213.96875 432.75 208.066406 438.652344 200.789062 438.652344 C 193.507812 438.652344 187.605469 432.75 187.605469 425.46875 C 187.605469 418.1875 193.507812 412.285156 200.785156 412.285156 C 208.066406 412.285156 213.96875 418.1875 213.96875 425.46875 "/>
<g fill="rgb(0%, 0%, 0%)" fill-opacity="1">
<use xlink:href="#glyph-0-0" x="189.445312" y="432.683594"/>
<use xlink:href="#glyph-0-4" x="200.445312" y="432.683594"/>
</g>
<path fill="none" stroke-width="1" stroke-linecap="butt" stroke-linejoin="miter" stroke="rgb(0%, 0%, 0%)" stroke-opacity="1" stroke-miterlimit="10" d="M 286.359375 425.46875 C 286.359375 434.75 278.835938 442.277344 269.554688 442.277344 C 260.269531 442.277344 252.746094 434.75 252.746094 425.46875 C 252.746094 416.1875 260.269531 408.660156 269.554688 408.660156 C 278.835938 408.660156 286.359375 416.1875 286.359375 425.46875 "/>
<g fill="rgb(0%, 0%, 0%)" fill-opacity="1">
<use xlink:href="#glyph-0-0" x="257.882812" y="432.644531"/>
<use xlink:href="#glyph-0-5" x="268.882812" y="432.644531"/>
</g>
<path fill="none" stroke-width="1" stroke-linecap="butt" stroke-linejoin="miter" stroke="rgb(0%, 0%, 0%)" stroke-opacity="1" stroke-miterlimit="10" d="M 79.8125 489.882812 C 79.8125 499.050781 72.378906 506.484375 63.210938 506.484375 C 54.039062 506.484375 46.605469 499.050781 46.605469 489.882812 C 46.605469 480.710938 54.039062 473.277344 63.207031 473.277344 C 72.378906 473.277344 79.8125 480.710938 79.8125 489.878906 "/>
<path fill="none" stroke-width="1" stroke-linecap="butt" stroke-linejoin="miter" stroke="rgb(0%, 0%, 0%)" stroke-opacity="1" stroke-miterlimit="10" d="M 76.492188 489.882812 C 76.492188 497.21875 70.546875 503.164062 63.210938 503.164062 C 55.871094 503.164062 49.925781 497.21875 49.925781 489.882812 C 49.925781 482.542969 55.871094 476.597656 63.207031 476.597656 C 70.546875 476.597656 76.492188 482.542969 76.492188 489.878906 "/>
<g fill="rgb(0%, 0%, 0%)" fill-opacity="1">
<use xlink:href="#glyph-0-0" x="51.742188" y="496.9375"/>
<use xlink:href="#glyph-0-6" x="62.742188" y="496.9375"/>
</g>
<path fill="none" stroke-width="1" stroke-linecap="butt" stroke-linejoin="miter" stroke="rgb(0%, 0%, 0%)" stroke-opacity="1" stroke-miterlimit="10" d="M 148.5 489.882812 C 148.5 499.007812 141.101562 506.40625 131.976562 506.40625 C 122.847656 506.40625 115.449219 499.007812 115.449219 489.882812 C 115.449219 480.753906 122.847656 473.355469 131.972656 473.355469 C 141.101562 473.355469 148.5 480.753906 148.5 489.878906 "/>
<g fill="rgb(0%, 0%, 0%)" fill-opacity="1">
<use xlink:href="#glyph-0-0" x="120.585938" y="496.949219"/>
<use xlink:href="#glyph-0-7" x="131.585938" y="496.949219"/>
</g>
<path fill="none" stroke-width="1" stroke-linecap="butt" stroke-linejoin="miter" stroke="rgb(0%, 0%, 0%)" stroke-opacity="1" stroke-miterlimit="10" d="M 286.28125 489.882812 C 286.28125 499.121094 278.792969 506.609375 269.554688 506.609375 C 260.3125 506.609375 252.824219 499.121094 252.824219 489.882812 C 252.824219 480.640625 260.3125 473.152344 269.554688 473.152344 C 278.792969 473.152344 286.28125 480.640625 286.28125 489.878906 "/>
<g fill="rgb(0%, 0%, 0%)" fill-opacity="1">
<use xlink:href="#glyph-0-0" x="257.960938" y="496.8125"/>
<use xlink:href="#glyph-0-8" x="268.960938" y="496.8125"/>
</g>
<path fill="none" stroke-width="1" stroke-linecap="butt" stroke-linejoin="miter" stroke="rgb(0%, 0%, 0%)" stroke-opacity="1" stroke-miterlimit="10" d="M 423.460938 489.882812 C 423.460938 499.601562 415.578125 507.484375 405.855469 507.484375 C 396.132812 507.484375 388.253906 499.601562 388.25 489.882812 C 388.25 480.160156 396.132812 472.277344 405.855469 472.277344 C 415.578125 472.277344 423.460938 480.160156 423.460938 489.878906 "/>
<path fill="none" stroke-width="1" stroke-linecap="butt" stroke-linejoin="miter" stroke="rgb(0%, 0%, 0%)" stroke-opacity="1" stroke-miterlimit="10" d="M 419.9375 489.882812 C 419.9375 497.660156 413.632812 503.964844 405.855469 503.964844 C 398.078125 503.964844 391.773438 497.660156 391.773438 489.882812 C 391.773438 482.101562 398.078125 475.796875 405.855469 475.796875 C 413.632812 475.796875 419.9375 482.101562 419.9375 489.878906 "/>
<g fill="rgb(0%, 0%, 0%)" fill-opacity="1">
<use xlink:href="#glyph-0-1" x="395.117188" y="496.96875"/>
<use xlink:href="#glyph-0-9" x="406.117188" y="496.96875"/>
</g>
<path fill="none" stroke-width="1" stroke-linecap="butt" stroke-linejoin="miter" stroke="rgb(0%, 0%, 0%)" stroke-opacity="1" stroke-miterlimit="10" d="M 148.847656 554.351562 C 148.847656 563.667969 141.292969 571.222656 131.976562 571.226562 C 122.65625 571.226562 115.101562 563.667969 115.101562 554.351562 C 115.101562 545.03125 122.65625 537.476562 131.972656 537.476562 C 141.292969 537.476562 148.847656 545.03125 148.847656 554.351562 "/>
<g fill="rgb(0%, 0%, 0%)" fill-opacity="1">
<use xlink:href="#glyph-0-1" x="121.964844" y="561.539062"/>
<use xlink:href="#glyph-0-0" x="132.964844" y="561.539062"/>
</g>
<path fill="none" stroke-width="1" stroke-linecap="butt" stroke-linejoin="miter" stroke="rgb(0%, 0%, 0%)" stroke-opacity="1" stroke-miterlimit="10" d="M 287.292969 554.351562 C 287.292969 564.148438 279.351562 572.089844 269.554688 572.089844 C 259.753906 572.089844 251.8125 564.148438 251.8125 554.351562 C 251.8125 544.550781 259.753906 536.609375 269.554688 536.609375 C 279.351562 536.609375 287.292969 544.550781 287.292969 554.351562 "/>
<g fill="rgb(0%, 0%, 0%)" fill-opacity="1">
<use xlink:href="#glyph-0-1" x="258.679688" y="561.539062"/>
<use xlink:href="#glyph-0-1" x="269.679688" y="561.539062"/>
</g>
<path fill="none" stroke-width="1" stroke-linecap="butt" stroke-linejoin="miter" stroke="rgb(0%, 0%, 0%)" stroke-opacity="1" stroke-miterlimit="10" d="M 286.851562 619.386719 C 286.851562 628.9375 279.105469 636.683594 269.554688 636.683594 C 260 636.683594 252.257812 628.9375 252.257812 619.386719 C 252.257812 609.832031 260 602.089844 269.554688 602.089844 C 279.105469 602.089844 286.847656 609.832031 286.847656 619.386719 "/>
<path fill="none" stroke-width="1" stroke-linecap="butt" stroke-linejoin="miter" stroke="rgb(0%, 0%, 0%)" stroke-opacity="1" stroke-miterlimit="10" d="M 283.390625 619.386719 C 283.390625 627.027344 277.195312 633.222656 269.554688 633.222656 C 261.910156 633.222656 255.714844 627.027344 255.714844 619.386719 C 255.714844 611.746094 261.910156 605.550781 269.554688 605.550781 C 277.195312 605.550781 283.390625 611.746094 283.390625 619.386719 "/>
<g fill="rgb(0%, 0%, 0%)" fill-opacity="1">
<use xlink:href="#glyph-0-1" x="259.121094" y="626.527344"/>
<use xlink:href="#glyph-0-2" x="270.121094" y="626.527344"/>
</g>
<path fill="none" stroke-width="1" stroke-linecap="butt" stroke-linejoin="miter" stroke="rgb(0%, 0%, 0%)" stroke-opacity="1" stroke-miterlimit="10" d="M 215.160156 64.210938 L 391.460938 115.789062 "/>
<path fill-rule="nonzero" fill="rgb(0%, 0%, 0%)" fill-opacity="1" d="M 391.460938 115.789062 L 381.519531 116.867188 L 383.667969 109.519531 L 391.460938 115.789062 "/>
<path fill="none" stroke-width="1" stroke-linecap="butt" stroke-linejoin="miter" stroke="rgb(0%, 0%, 0%)" stroke-opacity="1" stroke-miterlimit="10" d="M 212.066406 69.859375 L 269.554688 120 "/>
<path fill="none" stroke-width="1" stroke-linecap="butt" stroke-linejoin="miter" stroke="rgb(0%, 0%, 0%)" stroke-opacity="1" stroke-miterlimit="10" d="M 189.460938 69.859375 L 131.976562 120 "/>
<path fill="none" stroke-width="1" stroke-linecap="butt" stroke-linejoin="miter" stroke="rgb(0%, 0%, 0%)" stroke-opacity="1" stroke-miterlimit="10" d="M 187.015625 65.996094 L 63.210938 120 "/>
<path fill="none" stroke-width="1" stroke-linecap="butt" stroke-linejoin="miter" stroke="rgb(0%, 0%, 0%)" stroke-opacity="1" stroke-miterlimit="10" d="M 431.886719 73.113281 L 413.136719 106.886719 "/>
<path fill-rule="nonzero" fill="rgb(0%, 0%, 0%)" fill-opacity="1" d="M 413.136719 106.886719 L 414.277344 96.949219 L 420.96875 100.667969 L 413.136719 106.886719 "/>
<path fill="none" stroke-width="1" stroke-linecap="butt" stroke-linejoin="miter" stroke="rgb(0%, 0%, 0%)" stroke-opacity="1" stroke-miterlimit="10" d="M 473.210938 120 L 473.210938 425.46875 "/>
<g fill="rgb(0%, 0%, 0%)" fill-opacity="1">
<use xlink:href="#glyph-1-0" x="447.554688" y="279.453125"/>
</g>
<path fill="none" stroke-width="1" stroke-linecap="butt" stroke-linejoin="miter" stroke="rgb(0%, 0%, 0%)" stroke-opacity="1" stroke-miterlimit="10" d="M 392.128906 126.042969 L 283.28125 173.957031 "/>
<path fill-rule="nonzero" fill="rgb(0%, 0%, 0%)" fill-opacity="1" d="M 283.28125 173.957031 L 290.195312 166.730469 L 293.28125 173.738281 L 283.28125 173.957031 "/>
<path fill="none" stroke-width="1" stroke-linecap="butt" stroke-linejoin="miter" stroke="rgb(0%, 0%, 0%)" stroke-opacity="1" stroke-miterlimit="10" d="M 405.855469 135 L 405.855469 165 "/>
<path fill-rule="nonzero" fill="rgb(0%, 0%, 0%)" fill-opacity="1" d="M 405.855469 165 L 402.027344 155.761719 L 409.683594 155.761719 L 405.855469 165 "/>
<path fill="none" stroke-width="1" stroke-linecap="butt" stroke-linejoin="miter" stroke="rgb(0%, 0%, 0%)" stroke-opacity="1" stroke-miterlimit="10" d="M 269.554688 195 L 269.554688 225 "/>
<path fill-rule="nonzero" fill="rgb(0%, 0%, 0%)" fill-opacity="1" d="M 269.554688 225 L 265.726562 215.761719 L 273.378906 215.761719 L 269.554688 225 "/>
<path fill="none" stroke-width="1" stroke-linecap="butt" stroke-linejoin="miter" stroke="rgb(0%, 0%, 0%)" stroke-opacity="1" stroke-miterlimit="10" d="M 405.855469 195 L 405.855469 225 "/>
<path fill-rule="nonzero" fill="rgb(0%, 0%, 0%)" fill-opacity="1" d="M 405.855469 225 L 402.027344 215.761719 L 409.683594 215.761719 L 405.855469 225 "/>
<path fill="none" stroke-width="1" stroke-linecap="butt" stroke-linejoin="miter" stroke="rgb(0%, 0%, 0%)" stroke-opacity="1" stroke-miterlimit="10" d="M 258.25 249.863281 L 212.089844 290.136719 "/>
<path fill-rule="nonzero" fill="rgb(0%, 0%, 0%)" fill-opacity="1" d="M 212.089844 290.136719 L 216.535156 281.179688 L 221.566406 286.949219 L 212.089844 290.136719 "/>
<path fill="none" stroke-width="1" stroke-linecap="butt" stroke-linejoin="miter" stroke="rgb(0%, 0%, 0%)" stroke-opacity="1" stroke-miterlimit="10" d="M 269.554688 255 L 269.554688 408.660156 "/>
<path fill-rule="nonzero" fill="rgb(0%, 0%, 0%)" fill-opacity="1" d="M 269.554688 408.660156 L 265.726562 399.421875 L 273.378906 399.421875 L 269.554688 408.660156 "/>
<path fill="none" stroke-width="1" stroke-linecap="butt" stroke-linejoin="miter" stroke="rgb(0%, 0%, 0%)" stroke-opacity="1" stroke-miterlimit="10" d="M 337.773438 300 L 337.773438 554.351562 "/>
<path fill="none" stroke-width="1" stroke-linecap="butt" stroke-linejoin="miter" stroke="rgb(0%, 0%, 0%)" stroke-opacity="1" stroke-miterlimit="10" d="M 405.855469 255 L 405.855469 285 "/>
<path fill-rule="nonzero" fill="rgb(0%, 0%, 0%)" fill-opacity="1" d="M 405.855469 285 L 402.027344 275.761719 L 409.683594 275.761719 L 405.855469 285 "/>
<path fill="none" stroke-width="1" stroke-linecap="butt" stroke-linejoin="miter" stroke="rgb(0%, 0%, 0%)" stroke-opacity="1" stroke-miterlimit="10" d="M 189.632812 310.03125 L 144.421875 350.683594 "/>
<path fill-rule="nonzero" fill="rgb(0%, 0%, 0%)" fill-opacity="1" d="M 144.421875 350.683594 L 148.734375 341.660156 L 153.851562 347.351562 L 144.421875 350.683594 "/>
<path fill="none" stroke-width="1" stroke-linecap="butt" stroke-linejoin="miter" stroke="rgb(0%, 0%, 0%)" stroke-opacity="1" stroke-miterlimit="10" d="M 200.789062 315 L 200.789062 346.367188 "/>
<path fill-rule="nonzero" fill="rgb(0%, 0%, 0%)" fill-opacity="1" d="M 200.789062 346.367188 L 196.960938 337.125 L 204.613281 337.125 L 200.789062 346.367188 "/>
<path fill="none" stroke-width="1" stroke-linecap="butt" stroke-linejoin="miter" stroke="rgb(0%, 0%, 0%)" stroke-opacity="1" stroke-miterlimit="10" d="M 405.855469 315 L 405.855469 345 "/>
<path fill-rule="nonzero" fill="rgb(0%, 0%, 0%)" fill-opacity="1" d="M 405.855469 345 L 402.027344 335.761719 L 409.683594 335.761719 L 405.855469 345 "/>
<path fill="none" stroke-width="1" stroke-linecap="butt" stroke-linejoin="miter" stroke="rgb(0%, 0%, 0%)" stroke-opacity="1" stroke-miterlimit="10" d="M 119.683594 373.242188 L 75.273438 414.3125 "/>
<path fill-rule="nonzero" fill="rgb(0%, 0%, 0%)" fill-opacity="1" d="M 75.273438 414.3125 L 79.457031 405.230469 L 84.652344 410.847656 L 75.273438 414.3125 "/>
<path fill="none" stroke-width="1" stroke-linecap="butt" stroke-linejoin="miter" stroke="rgb(0%, 0%, 0%)" stroke-opacity="1" stroke-miterlimit="10" d="M 131.976562 378.617188 L 131.976562 408.617188 "/>
<path fill-rule="nonzero" fill="rgb(0%, 0%, 0%)" fill-opacity="1" d="M 131.976562 408.617188 L 128.148438 399.375 L 135.800781 399.375 L 131.976562 408.617188 "/>
<path fill="none" stroke-width="1" stroke-linecap="butt" stroke-linejoin="miter" stroke="rgb(0%, 0%, 0%)" stroke-opacity="1" stroke-miterlimit="10" d="M 144.269531 373.238281 L 188.683594 414.285156 "/>
<path fill-rule="nonzero" fill="rgb(0%, 0%, 0%)" fill-opacity="1" d="M 188.683594 414.285156 L 179.300781 410.824219 L 184.496094 405.203125 L 188.683594 414.285156 "/>
<path fill="none" stroke-width="1" stroke-linecap="butt" stroke-linejoin="miter" stroke="rgb(0%, 0%, 0%)" stroke-opacity="1" stroke-miterlimit="10" d="M 200.789062 377.386719 L 200.789062 408.992188 "/>
<path fill-rule="nonzero" fill="rgb(0%, 0%, 0%)" fill-opacity="1" d="M 200.789062 408.992188 L 196.960938 399.75 L 204.613281 399.75 L 200.789062 408.992188 "/>
<path fill="none" stroke-width="1" stroke-linecap="butt" stroke-linejoin="miter" stroke="rgb(0%, 0%, 0%)" stroke-opacity="1" stroke-miterlimit="10" d="M 212.175781 372.40625 L 257.214844 414.058594 "/>
<path fill-rule="nonzero" fill="rgb(0%, 0%, 0%)" fill-opacity="1" d="M 257.214844 414.058594 L 247.832031 410.59375 L 253.027344 404.976562 L 257.214844 414.058594 "/>
<path fill="none" stroke-width="1" stroke-linecap="butt" stroke-linejoin="miter" stroke="rgb(0%, 0%, 0%)" stroke-opacity="1" stroke-miterlimit="10" d="M 405.855469 378.75 L 405.855469 472.277344 "/>
<path fill-rule="nonzero" fill="rgb(0%, 0%, 0%)" fill-opacity="1" d="M 405.855469 472.277344 L 402.027344 463.039062 L 409.683594 463.039062 L 405.855469 472.277344 "/>
<path fill="none" stroke-width="1" stroke-linecap="butt" stroke-linejoin="miter" stroke="rgb(0%, 0%, 0%)" stroke-opacity="1" stroke-miterlimit="10" d="M 63.210938 441.902344 L 63.210938 473.277344 "/>
<path fill-rule="nonzero" fill="rgb(0%, 0%, 0%)" fill-opacity="1" d="M 63.210938 473.277344 L 59.382812 464.039062 L 67.035156 464.039062 L 63.210938 473.277344 "/>
<path fill="none" stroke-width="1" stroke-linecap="butt" stroke-linejoin="miter" stroke="rgb(0%, 0%, 0%)" stroke-opacity="1" stroke-miterlimit="10" d="M 119.675781 436.992188 L 75.328125 478.53125 "/>
<path fill-rule="nonzero" fill="rgb(0%, 0%, 0%)" fill-opacity="1" d="M 75.328125 478.53125 L 79.453125 469.421875 L 84.6875 475.007812 L 75.328125 478.53125 "/>
<path fill="none" stroke-width="1" stroke-linecap="butt" stroke-linejoin="miter" stroke="rgb(0%, 0%, 0%)" stroke-opacity="1" stroke-miterlimit="10" d="M 131.976562 442.324219 L 131.976562 473.355469 "/>
<path fill-rule="nonzero" fill="rgb(0%, 0%, 0%)" fill-opacity="1" d="M 131.976562 473.355469 L 128.148438 464.117188 L 135.800781 464.117188 L 131.976562 473.355469 "/>
<path fill="none" stroke-width="1" stroke-linecap="butt" stroke-linejoin="miter" stroke="rgb(0%, 0%, 0%)" stroke-opacity="1" stroke-miterlimit="10" d="M 254.332031 432.597656 L 146.941406 482.875 "/>
<path fill-rule="nonzero" fill="rgb(0%, 0%, 0%)" fill-opacity="1" d="M 146.941406 482.875 L 153.6875 475.492188 L 156.929688 482.421875 L 146.941406 482.875 "/>
<path fill="none" stroke-width="1" stroke-linecap="butt" stroke-linejoin="miter" stroke="rgb(0%, 0%, 0%)" stroke-opacity="1" stroke-miterlimit="10" d="M 269.554688 442.277344 L 269.554688 473.152344 "/>
<path fill-rule="nonzero" fill="rgb(0%, 0%, 0%)" fill-opacity="1" d="M 269.554688 473.152344 L 265.726562 463.914062 L 273.378906 463.914062 L 269.554688 473.152344 "/>
<path fill="none" stroke-width="1" stroke-linecap="butt" stroke-linejoin="miter" stroke="rgb(0%, 0%, 0%)" stroke-opacity="1" stroke-miterlimit="10" d="M 284.75 432.652344 L 389.941406 482.359375 "/>
<path fill-rule="nonzero" fill="rgb(0%, 0%, 0%)" fill-opacity="1" d="M 389.941406 482.359375 L 379.953125 481.871094 L 383.222656 474.953125 L 389.941406 482.359375 "/>
<path fill="none" stroke-width="1" stroke-linecap="butt" stroke-linejoin="miter" stroke="rgb(0%, 0%, 0%)" stroke-opacity="1" stroke-miterlimit="10" d="M 131.976562 506.40625 L 131.976562 537.476562 "/>
<path fill-rule="nonzero" fill="rgb(0%, 0%, 0%)" fill-opacity="1" d="M 131.976562 537.476562 L 128.148438 528.238281 L 135.800781 528.238281 L 131.976562 537.476562 "/>
<path fill="none" stroke-width="1" stroke-linecap="butt" stroke-linejoin="miter" stroke="rgb(0%, 0%, 0%)" stroke-opacity="1" stroke-miterlimit="10" d="M 269.554688 506.609375 L 269.554688 536.609375 "/>
<path fill-rule="nonzero" fill="rgb(0%, 0%, 0%)" fill-opacity="1" d="M 269.554688 536.609375 L 265.726562 527.371094 L 273.378906 527.371094 L 269.554688 536.609375 "/>
<path fill="none" stroke-width="1" stroke-linecap="butt" stroke-linejoin="miter" stroke="rgb(0%, 0%, 0%)" stroke-opacity="1" stroke-miterlimit="10" d="M 147.230469 561.5625 L 253.914062 611.996094 "/>
<path fill-rule="nonzero" fill="rgb(0%, 0%, 0%)" fill-opacity="1" d="M 253.914062 611.996094 L 243.929688 611.503906 L 247.199219 604.585938 L 253.914062 611.996094 "/>
<path fill="none" stroke-width="1" stroke-linecap="butt" stroke-linejoin="miter" stroke="rgb(0%, 0%, 0%)" stroke-opacity="1" stroke-miterlimit="10" d="M 269.554688 572.089844 L 269.554688 602.089844 "/>
<path fill-rule="nonzero" fill="rgb(0%, 0%, 0%)" fill-opacity="1" d="M 269.554688 602.089844 L 265.726562 592.851562 L 273.378906 592.851562 L 269.554688 602.089844 "/>
<path fill="none" stroke-width="1" stroke-linecap="butt" stroke-linejoin="miter" stroke="rgb(0%, 0%, 0%)" stroke-opacity="1" stroke-miterlimit="10" d="M 269.554688 120 L 269.554688 165 "/>
<path fill-rule="nonzero" fill="rgb(0%, 0%, 0%)" fill-opacity="1" d="M 269.554688 165 L 265.726562 155.761719 L 273.378906 155.761719 L 269.554688 165 "/>
<path fill="none" stroke-width="1" stroke-linecap="butt" stroke-linejoin="miter" stroke="rgb(0%, 0%, 0%)" stroke-opacity="1" stroke-miterlimit="10" d="M 131.976562 120 L 131.976562 345.136719 "/>
<path fill-rule="nonzero" fill="rgb(0%, 0%, 0%)" fill-opacity="1" d="M 131.976562 345.136719 L 128.148438 335.898438 L 135.800781 335.898438 L 131.976562 345.136719 "/>
<path fill="none" stroke-width="1" stroke-linecap="butt" stroke-linejoin="miter" stroke="rgb(0%, 0%, 0%)" stroke-opacity="1" stroke-miterlimit="10" d="M 63.210938 120 L 63.210938 409.039062 "/>
<path fill-rule="nonzero" fill="rgb(0%, 0%, 0%)" fill-opacity="1" d="M 63.210938 409.039062 L 59.382812 399.796875 L 67.035156 399.796875 L 63.210938 409.039062 "/>
<path fill="none" stroke-width="1" stroke-linecap="butt" stroke-linejoin="miter" stroke="rgb(0%, 0%, 0%)" stroke-opacity="1" stroke-miterlimit="10" d="M 446.570312 73.046875 L 473.210938 120 "/>
<path fill="none" stroke-width="1" stroke-linecap="butt" stroke-linejoin="miter" stroke="rgb(0%, 0%, 0%)" stroke-opacity="1" stroke-miterlimit="10" d="M 473.210938 425.46875 L 418.578125 477.714844 "/>
<path fill-rule="nonzero" fill="rgb(0%, 0%, 0%)" fill-opacity="1" d="M 418.578125 477.714844 L 422.609375 468.5625 L 427.902344 474.09375 L 418.578125 477.714844 "/>
<path fill="none" stroke-width="1" stroke-linecap="butt" stroke-linejoin="miter" stroke="rgb(0%, 0%, 0%)" stroke-opacity="1" stroke-miterlimit="10" d="M 280.816406 249.90625 L 337.773438 300 "/>
<path fill="none" stroke-width="1" stroke-linecap="butt" stroke-linejoin="miter" stroke="rgb(0%, 0%, 0%)" stroke-opacity="1" stroke-miterlimit="10" d="M 337.773438 554.351562 L 282.070312 607.453125 "/>
<path fill-rule="nonzero" fill="rgb(0%, 0%, 0%)" fill-opacity="1" d="M 282.070312 607.453125 L 286.117188 598.304688 L 291.398438 603.847656 L 282.070312 607.453125 "/>
</svg>
