<?xml version="1.0" encoding="UTF-8"?>
<svg xmlns="http://www.w3.org/2000/svg" width="240" height="420" viewBox="0 0 240 420">
  <defs>
    <marker id="arrowhead" markerWidth="10" markerHeight="7" refX="10" refY="3.5" orient="auto" fill="black">
      <polygon points="0 0, 10 3.5, 0 7" />
    </marker>
  </defs>
  <circle id="0" cx="120" cy="360" r="15" fill="none" stroke="black" stroke-width="1"/>
  <text id="0" x="120" y="360" text-anchor="middle" dominant-baseline="middle" font-size="20" fill="black">0</text>
  <circle id="1" cx="120" cy="60" r="15" fill="none" stroke="black" stroke-width="1"/>
  <text id="1" x="120" y="60" text-anchor="middle" dominant-baseline="middle" font-size="20" fill="black">1</text>
  <circle id="2" cx="120" cy="180" r="15" fill="none" stroke="black" stroke-width="1"/>
  <text id="2" x="120" y="180" text-anchor="middle" dominant-baseline="middle" font-size="20" fill="black">2</text>
  <circle id="3" cx="60" cy="120" r="15" fill="none" stroke="black" stroke-width="1"/>
  <text id="3" x="60" y="120" text-anchor="middle" dominant-baseline="middle" font-size="20" fill="black">3</text>
  <circle id="4" cx="60" cy="180" r="15" fill="none" stroke="black" stroke-width="1"/>
  <text id="4" x="60" y="180" text-anchor="middle" dominant-baseline="middle" font-size="20" fill="black">4</text>
  <circle id="5" cx="60" cy="240" r="15" fill="none" stroke="black" stroke-width="1"/>
  <text id="5" x="60" y="240" text-anchor="middle" dominant-baseline="middle" font-size="20" fill="black">5</text>
  <circle id="6" cx="120" cy="240" r="15" fill="none" stroke="black" stroke-width="1"/>
  <text id="6" x="120" y="240" text-anchor="middle" dominant-baseline="middle" font-size="20" fill="black">6</text>
  <circle id="7" cx="90" cy="300" r="15" fill="none" stroke="black" stroke-width="1"/>
  <text id="7" x="90" y="300" text-anchor="middle" dominant-baseline="middle" font-size="20" fill="black">7</text>
  <line id="9->8" x1="180" y1="300" x2="180" y2="120" stroke="black" stroke-width="1" />
  <line id="1->2" x1="120" y1="75" x2="120" y2="165" stroke="black" stroke-width="1" marker-end="url(#arrowhead)" />
  <line id="1->3" x1="109.39339828220179" y1="70.60660171779821" x2="70.60660171779821" y2="109.39339828220179" stroke="black" stroke-width="1" marker-end="url(#arrowhead)" />
  <line id="2->5" x1="109.39339828220179" y1="190.6066017177982" x2="70.60660171779821" y2="229.3933982822018" stroke="black" stroke-width="1" marker-end="url(#arrowhead)" />
  <line id="2->6" x1="120" y1="195" x2="120" y2="225" stroke="black" stroke-width="1" marker-end="url(#arrowhead)" />
  <line id="3->4" x1="60" y1="135" x2="60" y2="165" stroke="black" stroke-width="1" marker-end="url(#arrowhead)" />
  <line id="4->5" x1="60" y1="195" x2="60" y2="225" stroke="black" stroke-width="1" marker-end="url(#arrowhead)" />
  <line id="4->6" x1="70.60660171779821" y1="190.6066017177982" x2="109.39339828220179" y2="229.3933982822018" stroke="black" stroke-width="1" marker-end="url(#arrowhead)" />
  <line id="5->7" x1="66.70820393249937" y1="253.41640786499875" x2="83.29179606750063" y2="286.58359213500125" stroke="black" stroke-width="1" marker-end="url(#arrowhead)" />
  <line id="6->7" x1="113.29179606750063" y1="253.41640786499875" x2="96.70820393249937" y2="286.58359213500125" stroke="black" stroke-width="1" marker-end="url(#arrowhead)" />
  <line id="7->0" x1="96.70820393249937" y1="313.41640786499875" x2="113.29179606750063" y2="346.58359213500125" stroke="black" stroke-width="1" marker-end="url(#arrowhead)" />
  <line id="8->1" x1="180" y1="120" x2="130.6066017177982" y2="70.60660171779821" stroke="black" stroke-width="1" marker-end="url(#arrowhead)" />
  <line id="0->9" x1="130.6066017177982" y1="349.3933982822018" x2="180" y2="300" stroke="black" stroke-width="1" />
</svg>
